<svg width="200" height="289" viewBox="0 0 200 289" fill="none" xmlns="http://www.w3.org/2000/svg">
<path d="M184.455 194.719L185.109 194.085L186.099 193.531L187.01 193.452L187.366 192.66L189.307 191.077L189.723 190.423L190.713 190.78L191.228 190.384L190.733 189.196L190.931 188.404L191.723 186.623L192.238 185.455L192.832 184.208L192.752 183.337L193.049 180.566L192.455 179.22L191.624 178.745L189.287 178.111L188.297 177.22L188.535 175.993L189.624 175.063L190.099 173.618L189.941 172.687L189.267 171.381L188.02 170.094L187.208 168.729L186.851 167.363L187.327 166.531L188.653 166.274L189.049 165.72L192.693 164.295L192.931 162.177L193.564 161.702L193.96 161.029L193.822 159.801L194.158 157.96L194.931 155.229L194.752 154.714L195.802 153.328L196.891 151.745L196.851 148.776L196.99 148.301L196.752 147.37L196.891 145.807L198.337 144.619L198.931 143.688L198.277 143.471L196.772 144.005L196.059 143.015L195.861 142.105L195.168 141.234L193.782 141.135L190.812 140.64L189.762 140.046L189.089 139.314L187.03 139.235L186.257 138.443L186.614 137.176L186.119 136.582L185.485 134.999L184.317 133.89L184.238 133.079L184 132.03L184.02 130.545L183.703 129.318L184.614 127.536L184.356 126.269L183.525 125.636L183.188 124.844L182.059 123.419L182.218 122.687L182.02 121.202L182.257 120.43L181.861 119.262L181.347 117.56L180.158 117.184L180.257 116.293L181.307 114.61L181.069 112.71L180.475 112.116L180.594 111.562L180.198 110.295L180.04 107.366L179.901 105.94L179.01 104.139L179.842 103.664L180.099 103.05L180.277 101.863L179.822 100.338L179.228 99.804L179.089 99.0123L179.347 97.8444L179.802 96.9734L179.069 95.9243L179.03 95.1325L179.96 94.8158L179.129 93.3906L179.723 92.4009L179.901 91.3517L179.426 90.9559L179.96 89.9265L179.109 89.0952L179.604 88.5211L179.248 87.6106L179.347 86.5813L177.267 85.4332L175.941 84.4237L174 83.6517L173.485 82.464L172.238 82.2661L172.634 81.4149L172.535 80.7815L171.604 80.2866L170.277 78.4853L169.168 78.4259L168.693 77.357L168.911 76.7632L168.158 76.011L168.495 75.4766L168.376 74.566L168.713 73.9326L169.426 72.5866L168.099 72.0521L170.554 69.1423L169.762 67.915L168.693 66.9253L169.089 65.797L168.495 65.6585L169.129 65.4605L169.742 64.0749L170.218 63.6196L170.673 61.9371V61.0859L171.287 59.9379L171.228 59.1263L171.663 58.4335L172.693 56.9489V56.3154L172.099 53.7421L173.426 51.9409L172.733 51.3866L171.98 49.8228L172.911 47.3485L172.653 46.8735L170.95 46.7547L170.455 46.2203L168.475 46.1807L168.139 45.2503L168.851 44.4783L169.148 43.548L168.851 42.5187L168.257 41.9644L167.525 40.7965L167.386 39.9256L166.792 39.3713L167.98 37.7086L167.723 36.7189L168.515 35.551L167.109 35.1353L166.119 34.5415H165.188L164.931 34.4227L165.287 32.4433L164.851 31.2556L164 30.8399L164.02 30.2461L165.069 29.9689L165.465 29.2959L165.663 28.0291L166.277 27.8311L165.703 27.5342L165.426 26.208L165.525 24.09L164.733 24.0702L163.743 24.5452L162.891 24.0504L162.356 22.8231L162.95 22.0709L163.03 21.2395L165.604 16.8848L165.406 16.2117L166 15.3408L167.941 13.6582L167.762 12.4706L168.04 11.8371L167.861 10.7089L167.386 9.58057L166.297 9.46181L165.624 8.90756L165.584 7.85846L164.95 8.0762L162.931 7.24483L161.604 7.324L160.139 6.9479L159.01 7.48236L157.426 7.04687L156.634 7.324L155.445 6.96771L154.139 5.83941L153.03 5.26538L151.327 3.72141L150.931 3.87977L149.881 2.89004L149.505 2.15762L148.772 1.86072L147.98 2.09824L147.188 3.02859L147.307 4.07769L146.574 6.05715L147.683 7.64072L148.653 8.43248L148.99 9.22428L148.079 11.2037L146.436 12.6883L145.505 13.876L144.515 14.549V15.42L143.723 16.667L142.832 17.3598L142.574 18.1516L142.376 18.3693L141.426 19.2601L140.436 19.2403L139.445 19.8342L137.525 19.9133L137.663 21.4573L137.465 22.7044L136.752 23.0606L136.614 24.1097L135.069 24.565L134.812 25.6735L134.02 25.5548L132.317 26.1684L131.327 26.4059L130.198 25.8121L129.426 26.3664L128.257 26.3268L127.881 27.2175L126.99 26.4653L126.198 27.3363L125.426 27.5342L124.752 27.1383L124.495 26.1882L124.099 27.1383L123.406 27.5738L123.307 28.4843L122.475 29.4147L122.158 30.1669L121.96 30.543L120.515 31.0972L120.277 31.9484L119.723 32.7204L118.257 34.1456L117.96 34.8978L118.436 36.0854L117.941 37.3919L118.376 38.3024L117.921 38.7181L116.594 41.5289L115.98 43.0333L114.515 43.9835L114.178 44.8544L113.287 45.3295L112.297 46.8933L111.921 48.358L111.426 49.229L110.356 49.6843L110.713 51.0105L109.545 50.9313L108.871 51.4262L107.347 53.2869L107.406 55.5039L108.079 56.8499L108.099 58.1959L108.653 59.0669H109.406L110.475 59.6607L111.346 60.5515L111.109 61.5808L111.98 62.1746L112.099 63.006L111.228 64.4312L111.525 65.4011L109.782 68.3703L108.792 69.0829L108.495 69.6372L109.406 70.6665L109.446 71.8542L108.614 72.5074L109.01 73.893L110.455 75.0807L110.614 76.6444L110.713 76.882L111.96 78.3665L111.644 79.4553L112.297 81.4149L112.614 83.1568L113.247 84.1465L113.901 87.2345L112.832 88.9566L113.426 90.4808L113.307 91.7081L112.97 92.6978L111.624 93.4896L110.832 94.2814L109.98 94.4199L109.287 95.9441L107.96 96.439L107.802 97.5277L107.01 98.3788L106.733 99.5665L106.02 100.22L105.703 101.289L104 101.546L103.544 102.1L104.079 103.288L103.782 104.08L104.218 106.316L103.307 107.108L103.703 108.83L103.564 109.8L104.238 110.83L103.505 112.393L103.822 112.73L103.901 114.076L105.089 115.204L105.148 116.075L104.218 117.065L104.257 117.579L105.148 119.123L105.703 119.48L107.148 119.678L107.604 120.41L107.901 121.776L109.188 122.31L110.376 123.36L111.208 123.458L111.941 124.31L112.198 125.299L112.119 126.349L112.832 127.477L112.079 128.11L111.96 128.961L111.168 130.149L111.564 132.425L110.832 133.217L110.812 135.771L110.079 136.76L109.822 138.245L109.703 138.958L108.713 140.145L107.644 140.7L107.109 141.788L106.475 142.184L105.188 142.243L103.802 141.848L103.307 142.461L101.683 142.996L100.614 142.441H98.1782L97.3861 143.312L95.802 143.629L94.8119 143.491L93.1683 144.777L92.1782 145.094L90.9505 145.173L89.7822 144.302L89.0494 143.51L87.901 143.174L87.1882 141.749L86.396 142.065L84.5346 140.739L83.3069 140.284L82.4753 140.403L81.8416 140.007L80.4951 140.205L79.7426 140.601L79.1881 140.165L78.1583 141.036L76.9901 141.313L75.9208 142.105L74.8911 141.907L74.2772 142.54L73.3663 141.59L72.2772 142.085L70.6732 142.184L69.9802 142.461L69.7821 143.867L69.1485 144.322L68.7327 143.688L67.8019 143.787L68.396 144.975L67.4653 144.817L66.9306 145.866L65.8614 146.559L65.7624 147.786L64.8118 148.221L64.5742 149.528L63.5841 150.537L63.1287 150.597L62.099 151.903L62.2178 152.596V153.17L60.9109 154.714L60.396 154.417L59.0891 154.813L58.3564 154.793L56.7722 155.862L55.2673 156.377L53.9207 157.327L53.5841 158.198L52.0593 158.554L51.8415 159.247L51.0495 159.9L50.3168 161.365L48.7326 162.078L48.0989 163.127L47.6832 164.413L46.2772 164.215L45.8811 163.226L44.5346 163.82L43.2476 163.226L43.1287 163.721L42.198 164.077L41.4653 165.324L40.3762 165.443L39.5445 166.927L37.3663 167.402L35.1089 168.531L33.8416 168.155L32.4158 168.57L31.4257 168.511L30.5148 169.54L29.3069 170.411L28.693 169.778L27.7029 170.569L25.1287 170.787L24.8713 171.322L23.8218 172.212L23.0297 172.074L22.9307 172.945L20.9109 174.014L20.4158 174.707L20.4356 175.558L19.802 176.072L19.9999 176.745L19.703 178.131L19.0297 178.586L18.9703 179.398L18.0197 180.724L18.6534 181.536L17.9009 182.011L17.9802 182.703L17.4257 184.564L16.9703 185.396L17.505 185.811L16.6534 186.603L17.1484 187.118L16.9505 188.008L16.3763 188.899L16.6732 189.552L16.297 190.067L16.4356 191.057L15.3267 192.264L15.5248 192.739L13.6436 194.343L13.5049 195.669L12.7128 197.312L12.1386 199.133L11.4851 199.37L11.2673 200.558L10.7524 201.409L10.9901 203.092L10.3366 204.002L10.4555 204.537L9.82181 205.685L9.02968 206.279L9.66336 207.17L8.65344 207.368L8.0594 208.238L8.13857 208.793L7.40591 210.614L5.68314 211.485L4.00002 213.108L3.24754 214.098L3.60396 215.127L2.81183 215.721L3.00992 216.216L2.01983 217.977L2.13863 218.769L2.97028 219.719L4.09901 221.877L3.90092 222.471L4.53459 223.698L4.3168 225.004L4.71287 226.113L5.42571 227.023V228.706L5.06929 230.963L5.78213 232.744L7.16829 233.021L7.84161 233.615L8.87123 235.159L9.42575 237.336L9.16831 237.435L8.45547 238.188L7.38608 240.246L7.52471 241.355L8.13857 242.186L7.68316 243.393L7.82179 244.324L7.50489 244.898L8.09905 246.402V247.59L7.50489 248.421L6.6139 250.678L6.81187 252.301L7.34656 253.429L6.9505 255.409L6.6336 255.706L6.03956 257.665L6.39599 257.962L6.09903 259.387L5.34654 260.872L3.76241 262.396L3.40587 263.267L3.74259 264.574L2.77231 264.217L1.42567 264.296L0.871277 265.227L1.86138 265.939L2.8713 268.117L4.9703 268.513L5.80195 267.464L4.81185 266.474L5.46535 264.772L6.49509 264.415L9.06932 264.91L10.8119 263.92L11.4059 262.654L11.1287 261.842L11.5248 260.971H12.7128L14.198 259.961L15.7426 259.308L17.0099 260.417L16.8515 261.862L17.3862 263.129L18.5346 264.079L18.5742 265.207L19.6832 266.078L20.8712 267.404L21.802 268.137L21.8613 270.037L22.2177 270.67L23.0099 271.126L22.8514 271.759L21.2079 273.382L21.4851 273.837L21.2475 275.223L21.5644 275.738V277.084L22.3367 278.133L23.3663 278.331L23.9208 279.321L24.3169 281.181L25.307 281.973L27.4455 282.686L27.8416 283.933L28.2376 284.329L29.1683 284.15L29.6633 284.705L31.3267 284.922H33.9604L35.0693 285.318L36.2574 286.486L37.7822 286.763L38.7723 287.694L39.2475 288.03L40.4356 287.12L41.604 286.506L42.198 287.06L43.5445 285.853L43.4852 285.18L44.2772 283.834L45.3267 283.675V283.121L46.8317 282.211L48.0198 282.428L48.5148 282.092L48.6931 281.102L48.4357 279.578L49.901 279.162L51.6238 277.46L52.7128 277.579L53.3862 278.173L54.3564 278.271L55.3069 277.757L56.0594 276.767L56.8515 276.965L58.1187 276.549L59.802 274.768L60.8316 275.045L61.6832 276.431L62.5148 277.361L63.2673 277.5L64.198 277.064L66.0594 278.054L66.9901 277.935L67.9802 276.45L68.9505 276.173L69.3465 275.837L70.0792 273.263L70.9703 272.195L70.6138 271.106L70.891 269.978L71.6039 269.74L72.2177 270.156L72.6733 270.631L74.0791 270.789L74.8713 270.176L74.8119 269.285L75.5446 267.939L77.5643 266.098V264.277L79.4059 262.238L79.9207 260.832L80.0594 259.783L79.8019 258.992L80.297 258.14L82.396 258.259L82.6336 257.606L83.4456 256.616L83.5842 255.211L82.4753 254.617L82.7129 253.489L82.0594 252.499L83.1683 251.569L84.0396 250.064L83.6039 249.352L82.4753 248.698L80.1385 247.709L79.4059 247.214L78.9505 246.006L79.0693 245.215L77.8812 243.196L77.406 242.839L77.4257 241.038L77.0297 240.207L77.5445 238.92L79.4653 236.406L80.5544 235.753L82.7327 235.238L85.089 233.556L85.6435 232.863L86.594 231.774L87.9405 231.319L89.4653 230.072L90.4554 229.656L91.5445 229.854L93.0495 231.556L93.703 232.744L94.495 233.457L95.1089 233.437L96.6138 234.565L96.891 235.238L98.3762 234.961L99.2078 234.565L100.079 235.278L100.812 234.902L101.208 233.833L102.297 234.05L102.594 233.615L104.238 234.565L104.772 234.427L105.465 235.06L107.307 234.605L108.297 235.535L108.277 237.317L108.832 238.762L110.218 238.999L111.168 240.187L112.079 239.831L112.871 240.147L113.149 242.206H114.931L115.327 241.157L116.792 239.929L117.703 239.633L120.178 239.415L120.752 238.643L121.188 237.99L122.455 237.91L123.861 238.108L124.614 237.871L125.01 236.624L126.158 236.703L126.871 235.951L127.208 234.882L129.089 233.932L129.366 232.902L130.455 232.21L130.792 231.616L132.455 231.418L133.941 230.448L134.634 230.784L135.584 230.527L137.148 230.586L138.535 230.29L139.445 229.557L141.228 229.3L141.861 229.854L142.851 229.24L144.634 230.29L145.327 229.537L146.396 228.845L146.951 228.963L147.525 229.023L148.119 227.34L148.871 226.311V225.717L150.851 224.173L151.248 223.619L151.307 221.521L151.564 221.026H152.752L153.426 220.194L154.693 220.056L155.663 219.046L156.911 218.967L157.762 219.205L157.921 218.215L158.99 216.216L159.782 215.068L160.337 215.048L162.455 212.653L163.069 210.911L163.545 210.297L164.337 210.337H165.089L166.376 209.426L166.832 208.694H168.079L169.406 208.08L169.941 206.279L171.049 205.863L171.644 204.26L172.455 204.537L173.723 203.488L174.198 202.102L174.871 202.26L175.525 200.677L176.634 200.301L176.891 199.568L177.644 199.509L179.426 201.172L180.277 200.38L180.119 199.608L180.713 199.093L180.455 198.401L181.327 198.064L181.703 198.539L182.574 198.895L183.208 198.203L183.267 196.777L184.139 196.738L184.594 195.906L184.455 194.719Z" fill="#E5E2E1" stroke="#F6F3F2" stroke-linecap="round" stroke-linejoin="round"/>
</svg>
