<svg width="81" height="72" viewBox="0 0 81 72" fill="none" xmlns="http://www.w3.org/2000/svg">
<path d="M13.3839 2.93674C15.6685 2.81701 17.7058 3.21039 19.4957 4.11684C21.3161 4.98943 22.7545 6.26924 23.8109 7.95626C24.8673 9.64328 25.4545 11.613 25.5725 13.8655C25.7125 16.5362 25.2107 18.9664 24.067 21.1559C22.9556 23.3437 21.3539 25.1056 19.2621 26.4413C17.1685 27.7449 14.8025 28.4658 12.1639 28.6041C9.87923 28.7238 7.84281 28.3466 6.0546 27.4723C4.26471 26.5658 2.84157 25.2691 1.78516 23.5821C0.728755 21.895 0.141529 19.9253 0.0234828 17.6728C-0.116487 15.0021 0.369261 12.5728 1.48072 10.3849C2.62437 8.1954 4.22686 6.4497 6.28822 5.14781C8.38006 3.81206 10.7453 3.07502 13.3839 2.93674ZM13.2435 5.79967C11.2807 5.90254 9.52008 6.47882 7.96177 7.52848C6.40177 8.54597 5.19904 9.91578 4.35357 11.6379C3.54028 13.3584 3.18844 15.2645 3.29805 17.356C3.43634 19.9946 4.32075 22.094 5.9513 23.6541C7.61403 25.2126 9.73252 25.9243 12.3068 25.7894C14.2696 25.6866 16.031 25.1264 17.591 24.1089C19.151 23.0914 20.3377 21.7224 21.151 20.0019C21.9964 18.2798 22.3635 16.3568 22.2522 14.2331C22.1139 11.5945 21.2134 9.49597 19.5507 7.93752C17.9202 6.37739 15.8178 5.66476 13.2435 5.79967Z" fill="#151D18"/>
<path d="M30.5088 2.57167L36.5904 2.25293L35.8854 8.19464L36.1268 8.18198C36.5589 7.19135 37.0121 6.29641 37.4865 5.49716C37.9913 4.66404 38.5673 3.95627 39.2144 3.37383C39.8597 2.75921 40.5923 2.26907 41.4121 1.90344C42.264 1.53613 43.2209 1.32465 44.2828 1.269C46.8571 1.13409 48.785 1.90424 50.0667 3.57945C51.3466 5.22249 52.065 7.5403 52.2218 10.5329C52.3382 12.7531 52.1912 14.8743 51.7809 16.8963C51.4028 18.9167 50.7546 20.7091 49.8364 22.2738C48.9486 23.8046 47.8035 25.0423 46.401 25.987C44.9985 26.9317 43.3641 27.4529 41.4978 27.5508C39.5671 27.6519 38.0481 27.2959 36.9407 26.4828C35.8316 25.6375 35.0249 24.4052 34.5206 22.7861L34.231 22.8012L32.6096 37.1157L26.5279 37.4344L30.5088 2.57167ZM39.3142 22.8252C41.277 22.7224 42.759 22.0639 43.7602 20.8498C44.7614 19.6358 45.3714 18.0389 45.5903 16.0592L45.9162 13.0413C45.9653 12.7483 45.9951 12.3919 46.0053 11.9719C46.0461 11.518 46.0563 11.098 46.0361 10.7118C45.9636 9.32819 45.5989 8.21798 44.9419 7.38121C44.3172 6.54276 43.313 6.1598 41.9293 6.23231C40.9962 6.28122 40.1544 6.53505 39.4041 6.99384C38.6859 7.45094 38.01 8.09942 37.3765 8.93929C36.9546 9.50992 36.5251 10.2423 36.088 11.1364C35.6492 11.9983 35.3619 12.9814 35.2262 14.0855L34.74 18.6606C34.555 20.0577 34.8529 21.1231 35.6334 21.8565C36.4462 22.5883 37.6731 22.9112 39.3142 22.8252Z" fill="#151D18"/>
<path d="M65.6366 26.2857C62.097 26.4712 59.3943 25.6933 57.5284 23.9519C55.6929 22.1766 54.6858 19.5835 54.5071 16.1726C54.3874 13.888 54.6156 11.7787 55.1919 9.84481C55.8003 7.9092 56.6965 6.23278 57.8807 4.81554C59.0648 3.39829 60.5223 2.27325 62.2533 1.4404C63.9843 0.607559 65.9278 0.134635 68.0837 0.0216477C69.3387 -0.0441211 70.5047 0.0399714 71.5817 0.273921C72.691 0.506187 73.663 0.890844 74.4978 1.42789C75.3631 1.93107 76.0437 2.60526 76.5398 3.45046C77.0663 4.26179 77.359 5.23058 77.4181 6.35681C77.4687 7.32215 77.3109 8.31453 76.9449 9.33397C76.5772 10.3212 75.803 11.2491 74.6224 12.1177C73.4418 12.9862 71.7244 13.77 69.4701 14.4689C67.2463 15.134 64.3036 15.627 60.6421 15.9479C60.62 16.1427 60.6132 16.3205 60.6216 16.4814C60.6284 16.6101 60.6343 16.7227 60.6393 16.8193C60.7169 18.2994 61.1493 19.4707 61.9367 20.3329C62.7562 21.1934 64.1473 21.5722 66.1102 21.4693C66.8825 21.4288 67.5709 21.3282 68.1756 21.1675C68.7785 20.9745 69.3442 20.6868 69.8727 20.3041C70.4317 19.8876 70.9695 19.3755 71.4861 18.7676C72.035 18.158 72.6084 17.402 73.2065 16.4995L77.1968 18.7587C76.5734 19.7916 75.8983 20.7628 75.1715 21.672C74.4753 22.5474 73.6605 23.3161 72.7272 23.9781C71.8261 24.6384 70.7887 25.1606 69.6149 25.5448C68.4751 25.9595 67.149 26.2064 65.6366 26.2857ZM67.7373 4.49258C65.9031 4.5887 64.4025 5.19974 63.2354 6.3257C62.0987 7.41779 61.3515 9.16708 60.9936 11.5736L60.8867 12.3051C63.3577 12.0466 65.2927 11.7193 66.6916 11.3233C68.1228 10.9257 69.1974 10.4983 69.9156 10.0412C70.6338 9.58407 71.0768 9.10912 71.2445 8.61633C71.4428 8.08968 71.5301 7.60109 71.5065 7.1506C71.461 6.2818 71.1351 5.60515 70.5289 5.12066C69.9549 4.63448 69.0244 4.42512 67.7373 4.49258Z" fill="#151D18"/>
<path d="M51.7114 36.1394C53.8352 36.0281 55.7429 36.4121 57.4345 37.2914C59.1567 38.1369 60.513 39.3887 61.5033 41.0469C62.5259 42.7035 63.0945 44.6258 63.2092 46.8139C63.3491 49.4847 62.8659 51.9623 61.7595 54.2466C60.6514 56.4988 59.0853 58.3233 57.0612 59.72C55.0354 61.0846 52.7515 61.8334 50.2094 61.9667C47.6673 62.0999 45.4785 61.5854 43.643 60.4232C41.8379 59.2272 40.5876 57.5342 39.892 55.3442L37.4648 71.8305L34.231 72L39.3169 36.9825L42.5508 36.8131L41.7927 41.7411C42.9311 40.0682 44.3625 38.7509 46.0867 37.7893C47.8093 36.7956 49.6842 36.2456 51.7114 36.1394ZM50.842 38.9437C48.8791 39.0466 47.1042 39.6559 45.517 40.7716C43.9604 41.8534 42.745 43.2884 41.8707 45.0766C41.0269 46.831 40.659 48.7378 40.7669 50.7972C40.9035 53.4037 41.8023 55.47 43.4634 56.9963C45.1244 58.5225 47.226 59.2191 49.768 59.0858C51.7309 58.983 53.5067 58.3898 55.0955 57.3062C56.6826 56.1905 57.9133 54.7386 58.7876 52.9504C59.6619 51.1622 60.045 49.2384 59.9371 47.179C59.8005 44.5726 58.8865 42.5232 57.1949 41.0307C55.5339 39.5045 53.4162 38.8088 50.842 38.9437Z" fill="#151D18"/>
<path d="M72.9006 35.2225L69.2063 60.7775L65.9724 60.947L69.6667 35.392L72.9006 35.2225Z" fill="#151D18"/>
<path d="M80.0705 57.3838C79.7285 57.0145 79.284 56.8442 78.7369 56.8729C77.9968 56.9117 77.3676 57.2189 76.8493 57.7946C76.3292 58.3381 76.0886 58.9799 76.1274 59.72C76.1561 60.267 76.3575 60.7243 76.7317 61.0919C77.1042 61.4273 77.5478 61.5816 78.0627 61.5546C78.8028 61.5158 79.4329 61.2246 79.9529 60.6811C80.4713 60.1054 80.7111 59.4475 80.6723 58.7074C80.6436 58.1604 80.443 57.7192 80.0705 57.3838Z" fill="#151D18"/>
<path d="M14.5771 13.9863C14.2351 13.617 13.7906 13.4467 13.2435 13.4754C12.5034 13.5142 11.8742 13.8214 11.3559 14.3971C10.8358 14.9406 10.5952 15.5824 10.634 16.3225C10.6626 16.8696 10.8641 17.3269 11.2383 17.6945C11.6108 18.0299 12.0544 18.1841 12.5693 18.1571C13.3094 18.1183 13.9395 17.8272 14.4595 17.2836C14.9779 16.7079 15.2176 16.0501 15.1789 15.31C15.1502 14.7629 14.9496 14.3217 14.5771 13.9863Z" fill="#151D18"/>
</svg>
