<svg width="202" height="64" viewBox="0 0 202 64" fill="none" xmlns="http://www.w3.org/2000/svg">
<path d="M21.5021 8.55751C25.1738 8.36508 28.448 8.9973 31.3246 10.4541C34.2502 11.8565 36.5619 13.9133 38.2597 16.6246C39.9574 19.3358 40.9012 22.5015 41.0909 26.1215C41.3159 30.4138 40.5093 34.3194 38.6714 37.8382C36.8851 41.3544 34.311 44.1858 30.9491 46.3326C27.5846 48.4276 23.782 49.5862 19.5414 49.8085C15.8697 50.0009 12.5969 49.3946 9.72299 47.9895C6.8464 46.5327 4.55921 44.4487 2.86142 41.7374C1.16364 39.0261 0.219888 35.8604 0.0301716 32.2404C-0.194778 27.9481 0.585883 24.0439 2.37215 20.5278C4.21014 17.0089 6.78557 14.2033 10.0984 12.111C13.4603 9.96426 17.2615 8.77975 21.5021 8.55751ZM21.2765 13.1586C18.122 13.324 15.2925 14.2501 12.7881 15.9371C10.2809 17.5723 8.34798 19.7738 6.9892 22.5415C5.68213 25.3066 5.11668 28.3698 5.29284 31.7313C5.51508 35.9719 6.93646 39.3458 9.55697 41.8532C12.2292 44.3578 15.6339 45.5017 19.771 45.2849C22.9256 45.1196 25.7565 44.2193 28.2636 42.5841C30.7707 40.9488 32.6778 38.7487 33.9849 35.9836C35.3437 33.2159 35.9336 30.1255 35.7547 26.7123C35.5325 22.4717 34.0853 19.0991 31.413 16.5945C28.7925 14.0871 25.4137 12.9418 21.2765 13.1586Z" fill="#151D18"/>
<path d="M49.0241 7.97079L58.7982 7.45853L57.6651 17.0077L58.053 16.9873C58.7474 15.3952 59.4758 13.957 60.2382 12.6724C61.0496 11.3335 61.9752 10.196 63.0151 9.25997C64.0524 8.27219 65.2297 7.48447 66.5472 6.89686C67.9164 6.30654 69.4542 5.96666 71.1608 5.87723C75.298 5.66041 78.3964 6.89813 80.4562 9.59044C82.5133 12.231 83.6679 15.9561 83.9199 20.7655C84.1069 24.3338 83.8707 27.7428 83.2113 30.9925C82.6037 34.2394 81.5619 37.1202 80.0862 39.6348C78.6594 42.095 76.819 44.0842 74.5651 45.6024C72.3111 47.1207 69.6844 47.9584 66.685 48.1156C63.5821 48.2782 61.1408 47.7061 59.361 46.3993C57.5786 45.0407 56.2821 43.0603 55.4716 40.4581L55.0062 40.4825L52.4004 63.4878L42.6263 64L49.0241 7.97079ZM63.1756 40.5211C66.3301 40.3557 68.7119 39.2975 70.3209 37.3463C71.9299 35.3952 72.9104 32.8287 73.2622 29.647L73.7858 24.7969C73.8649 24.3261 73.9126 23.7532 73.9291 23.0782C73.9946 22.3487 74.0111 21.6737 73.9786 21.0532C73.862 18.8294 73.2759 17.0452 72.2201 15.7004C71.2161 14.3529 69.6022 13.7374 67.3785 13.8539C65.8788 13.9325 64.526 14.3405 63.32 15.0778C62.1659 15.8124 61.0796 16.8546 60.0614 18.2044C59.3835 19.1215 58.6932 20.2985 57.9907 21.7355C57.2854 23.1207 56.8237 24.7006 56.6056 26.4752L55.8242 33.8279C55.527 36.0733 56.0056 37.7854 57.2601 38.9642C58.5663 40.1403 60.5381 40.6593 63.1756 40.5211Z" fill="#151D18"/>
<path d="M105.479 46.0825C99.7906 46.3806 95.447 45.1303 92.4482 42.3317C89.4984 39.4786 87.8799 35.3112 87.5926 29.8294C87.4002 26.1577 87.767 22.7678 88.6931 19.6597C89.6709 16.5489 91.1114 13.8547 93.0144 11.577C94.9174 9.29929 97.2599 7.49119 100.042 6.15269C102.824 4.81419 105.947 4.05414 109.412 3.87256C111.429 3.76686 113.303 3.902 115.034 4.27799C116.817 4.65128 118.379 5.26947 119.72 6.13258C121.111 6.94126 122.205 8.02478 123.002 9.38312C123.848 10.687 124.319 12.244 124.414 14.054C124.495 15.6055 124.241 17.2004 123.653 18.8387C123.062 20.4254 121.818 21.9167 119.921 23.3125C118.023 24.7084 115.263 25.968 111.64 27.0913C108.066 28.1601 103.337 28.9525 97.4523 29.4683C97.4169 29.7813 97.4059 30.0671 97.4195 30.3256C97.4303 30.5325 97.4398 30.7135 97.4479 30.8686C97.5726 33.2475 98.2676 35.1298 99.5329 36.5155C100.85 37.8984 103.086 38.5072 106.24 38.3419C107.481 38.2768 108.588 38.1151 109.56 37.8568C110.529 37.5467 111.438 37.0842 112.287 36.4693C113.186 35.7999 114.05 34.9768 114.88 33.9999C115.762 33.0202 116.684 31.8051 117.645 30.3547L124.058 33.9856C123.056 35.6456 121.971 37.2064 120.803 38.6677C119.684 40.0746 118.375 41.31 116.875 42.3739C115.427 43.435 113.759 44.2743 111.873 44.8918C110.041 45.5582 107.91 45.9551 105.479 46.0825ZM108.855 11.058C105.908 11.2124 103.496 12.1945 101.62 14.004C99.7934 15.7592 98.5925 18.5705 98.0173 22.438L97.8456 23.6138C101.817 23.1983 104.926 22.6723 107.175 22.0359C109.475 21.3968 111.202 20.7099 112.356 19.9753C113.51 19.2407 114.222 18.4774 114.492 17.6854C114.811 16.839 114.951 16.0538 114.913 15.3298C114.84 13.9335 114.316 12.846 113.342 12.0674C112.419 11.286 110.924 10.9495 108.855 11.058Z" fill="#151D18"/>
<path d="M155.188 1.47356C158.601 1.29468 161.667 1.91186 164.386 3.32507C167.153 4.68386 169.333 6.69573 170.925 9.36071C172.568 12.023 173.482 15.1124 173.666 18.629C173.891 22.9213 173.115 26.9031 171.336 30.5744C169.556 34.194 167.039 37.1261 163.786 39.3709C160.53 41.5639 156.859 42.7675 152.774 42.9816C148.688 43.1957 145.171 42.3689 142.221 40.5011C139.32 38.5788 137.31 35.8579 136.192 32.3384L132.292 58.8341L127.094 59.1065L135.268 2.82862L140.465 2.55627L139.247 10.4764C141.077 7.78768 143.377 5.67063 146.148 4.12528C148.917 2.52821 151.93 1.6443 155.188 1.47356ZM153.791 5.98053C150.636 6.14586 147.783 7.12504 145.233 8.91813C142.731 10.6568 140.778 12.9631 139.372 15.837C138.016 18.6564 137.425 21.721 137.598 25.0308C137.818 29.2196 139.263 32.5405 141.932 34.9935C144.602 37.4464 147.979 38.5658 152.064 38.3517C155.219 38.1863 158.073 37.233 160.626 35.4916C163.177 33.6985 165.155 31.3651 166.56 28.4912C167.965 25.6173 168.581 22.5255 168.408 19.2157C168.188 15.0269 166.719 11.7332 164.001 9.33468C161.331 6.88175 157.928 5.76371 153.791 5.98053Z" fill="#151D18"/>
<path d="M189.242 0L183.304 41.0704L178.107 41.3428L184.044 0.272391L189.242 0Z" fill="#151D18"/>
<path d="M200.765 35.6162C200.215 35.0228 199.501 34.7491 198.621 34.7952C197.432 34.8575 196.421 35.3513 195.588 36.2765C194.752 37.15 194.365 38.1815 194.428 39.3709C194.474 40.25 194.797 40.985 195.399 41.5758C195.997 42.1148 196.71 42.3626 197.538 42.3193C198.727 42.2569 199.74 41.789 200.576 40.9155C201.409 39.9903 201.794 38.933 201.732 37.7435C201.686 36.8644 201.363 36.1553 200.765 35.6162Z" fill="#151D18"/>
<path d="M23.4198 26.3157C22.8701 25.7222 22.1557 25.4485 21.2765 25.4946C20.0871 25.5569 19.0759 26.0507 18.2428 26.9759C17.407 27.8494 17.0203 28.8809 17.0826 30.0703C17.1287 30.9495 17.4524 31.6844 18.0538 32.2752C18.6525 32.8142 19.3655 33.0621 20.1929 33.0187C21.3824 32.9564 22.395 32.4885 23.2308 31.615C24.0639 30.6897 24.4492 29.6324 24.3869 28.443C24.3408 27.5638 24.0184 26.8547 23.4198 26.3157Z" fill="#151D18"/>
</svg>
