<svg width="163" height="32" viewBox="0 0 163 32" fill="none" xmlns="http://www.w3.org/2000/svg">
<path d="M17.2418 6.743C19.4326 6.62848 21.1787 7.10935 22.48 8.18563C23.8045 9.23635 24.5171 10.7208 24.6179 12.6389C24.651 13.2702 24.6131 13.9417 24.504 14.6535L22.8065 26.2461L18.0234 26.4961L19.6112 15.6031C19.6626 15.1866 19.6787 14.7962 19.6595 14.432C19.6021 13.3394 19.2161 12.4952 18.5013 11.8996C17.7866 11.3039 16.8207 11.0379 15.6036 11.1015C14.2161 11.174 13.0118 11.7118 11.9905 12.7147C10.9935 13.7163 10.3777 15.0024 10.1429 16.5729L8.56668 26.9905L3.82007 27.2386L6.63013 8.69307L11.4498 8.44112L11.0475 10.098C12.4751 8.00258 14.5399 6.88424 17.2418 6.743Z" fill="#151D18"/>
<path d="M34.3248 25.8996C32.134 26.0142 30.3764 25.5461 29.052 24.4953C27.7506 23.4191 27.0495 21.9219 26.9487 20.0037C26.9143 19.3482 26.9522 18.6766 27.0626 17.9891L28.7601 7.53622L33.5432 7.28618L31.9554 17.0395C31.9028 17.4318 31.8867 17.8222 31.9071 18.2107C31.9645 19.3033 32.3505 20.1474 33.0653 20.7431C33.78 21.3387 34.7459 21.6047 35.963 21.5411C37.3505 21.4686 38.5427 20.9315 39.5396 19.9299C40.5609 18.9269 41.1889 17.6402 41.4237 16.0698L42.9999 6.79182L47.7465 6.54369L44.9365 25.0893L40.1168 25.3412L40.5191 23.6843C39.041 25.0893 37.0267 25.7584 34.3248 25.8996Z" fill="#151D18"/>
<path d="M63.0026 4.42387C64.5604 4.34244 65.9549 4.63475 67.1859 5.3008C68.4412 5.96558 69.432 6.93636 70.1581 8.21313C70.9085 9.48863 71.3284 10.9762 71.4177 12.6758C71.5274 14.7639 71.1651 16.6941 70.3307 18.4663C69.495 20.2143 68.3 21.628 66.7458 22.7075C65.2146 23.7614 63.4632 24.3399 61.4915 24.443C59.8363 24.5295 58.4309 24.2621 57.2755 23.6408C57.2755 23.6408 55.5286 22.9364 54.6319 21.851L52.9787 31.7538L48.2686 32L52.168 6.31256L56.9146 6.06443L56.5066 7.61204C57.3357 6.66787 58.2973 5.92371 59.3915 5.37957C60.5088 4.80988 61.7125 4.49132 63.0026 4.42387ZM61.5258 8.37223C60.3574 8.43331 59.3024 8.79279 58.3606 9.4507C57.4188 10.1086 56.6954 10.9742 56.1904 12.0475C55.6841 13.0966 55.4635 14.2402 55.5286 15.4785C55.609 17.0082 56.1115 18.2114 57.0363 19.0882C57.9611 19.9651 59.1415 20.366 60.5777 20.2909C61.7461 20.2298 62.8012 19.8703 63.743 19.2124C64.7091 18.5532 65.4453 17.6991 65.9515 16.6501C66.4809 15.5755 66.7137 14.4312 66.6499 13.2172C66.5695 11.6876 66.0548 10.4849 65.1057 9.60938C64.1796 8.70826 62.9863 8.29588 61.5258 8.37223Z" fill="#151D18"/>
<path d="M86.322 3.20484C87.8799 3.1234 89.2743 3.41571 90.5053 4.08176C91.7607 4.74654 92.7514 5.71732 93.4775 6.9941C94.228 8.2696 94.6479 9.75715 94.7372 11.4568C94.8469 13.5449 94.4845 15.475 93.6501 17.2473C92.8144 18.9952 91.6195 20.409 90.0652 21.4884C88.534 22.5424 86.7826 23.1208 84.8109 23.2239C83.1557 23.3104 81.7504 23.0431 80.595 22.4217C80.595 22.4217 78.8481 21.7967 77.9514 20.6319L76.2982 30.5347L71.5881 30.781L75.4874 5.09352L80.234 4.84539L79.826 6.39301C80.6551 5.44883 81.6168 4.70467 82.711 4.16053C83.8282 3.59084 85.0319 3.27228 86.322 3.20484ZM84.8453 7.15319C83.6769 7.21427 82.6218 7.57376 81.68 8.23166C80.7383 8.88957 80.0149 9.75517 79.5099 10.8285C79.0036 11.8775 78.783 13.0212 78.8481 14.2595C78.9284 15.7891 79.431 16.9924 80.3558 17.8692C81.2805 18.746 82.461 19.1469 83.8972 19.0718C85.0656 19.0108 86.1206 18.6513 87.0624 17.9934C88.0285 17.3342 88.7647 16.4801 89.271 15.4311C89.8003 14.3565 90.0331 13.2122 89.9693 11.9982C89.889 10.4685 89.3742 9.26591 88.4251 8.39035C87.4991 7.48923 86.3058 7.07684 84.8453 7.15319Z" fill="#151D18"/>
<path d="M106.029 2.21118C108.755 2.06867 110.937 2.72152 112.575 4.16973C114.237 5.59239 115.136 7.60271 115.272 10.2007C115.326 11.2205 115.258 12.2587 115.07 13.3155L100.246 14.0904C100.441 15.4923 101.023 16.5697 101.99 17.3226C102.957 18.0755 104.219 18.4112 105.777 18.3298C107.627 18.2331 109.3 17.5613 110.797 16.3144L113.175 19.0752C111.224 20.9545 108.775 21.9712 105.83 22.1251C103.858 22.2282 102.111 21.9543 100.588 21.3036C99.0648 20.6528 97.8544 19.6813 96.9566 18.3892C96.0819 17.0715 95.598 15.5264 95.5049 13.7539C95.3964 11.6901 95.7735 9.80787 96.6361 8.10719C97.5217 6.38096 98.7794 5.00048 100.409 3.96575C102.062 2.90547 103.935 2.32061 106.029 2.21118ZM110.923 10.355C110.895 8.89563 110.483 7.78505 109.686 7.02325C108.889 6.23717 107.771 5.88167 106.335 5.95675C104.923 6.03055 103.68 6.52162 102.605 7.42996C101.554 8.33703 100.834 9.49464 100.444 10.9028L110.923 10.355Z" fill="#151D18"/>
<path d="M126.787 1.12604C126.816 1.1245 126.846 1.12306 126.875 1.12171C128.713 1.03727 130.347 1.32917 131.775 1.99739C133.06 2.56669 134.099 3.38919 134.891 4.46488C135.008 4.62365 135.12 4.78795 135.226 4.95775C135.29 5.05767 135.353 5.15883 135.413 5.26121C136.146 6.51031 136.554 7.94273 136.639 9.55847C136.75 11.6708 136.35 13.5786 135.439 15.2819C134.552 16.9838 133.269 18.3413 131.589 19.3543C129.933 20.366 128.023 20.9285 125.856 21.0417C123.982 21.1397 122.307 20.8499 120.831 20.1723C119.38 19.4934 118.23 18.5066 117.38 17.2119C116.554 15.8917 116.095 14.3453 116.002 12.5729C115.891 10.4605 116.279 8.56549 117.168 6.88782C118.054 5.18587 119.338 3.8284 121.018 2.8154C122.697 1.80241 124.62 1.23929 126.787 1.12604ZM126.634 5.18778C125.466 5.24886 124.422 5.58343 123.502 6.1915C122.606 6.7983 121.916 7.61344 121.433 8.63692C120.95 9.66041 120.742 10.8034 120.808 12.066C120.891 13.6442 121.408 14.8954 122.36 15.8195C123.31 16.7194 124.528 17.1305 126.013 17.0528C127.181 16.9918 128.213 16.6578 129.109 16.051C130.004 15.4442 130.694 14.6291 131.177 13.6056C131.66 12.5821 131.869 11.4391 131.802 10.1765C131.721 8.6226 131.204 7.38357 130.252 6.45945C129.325 5.53405 128.119 5.11016 126.634 5.18778Z" fill="#151D18"/>
<path d="M147.961 0.0191525C150.687 -0.123364 152.869 0.529485 154.508 1.9777C156.169 3.40036 157.068 5.41068 157.204 8.00866C157.258 9.02843 157.19 10.0667 157.002 11.1235L142.178 11.8984C142.374 13.3003 142.955 14.3777 143.922 15.1306C144.889 15.8835 146.152 16.2192 147.709 16.1378C149.559 16.041 151.233 15.3693 152.729 14.1224L155.108 16.8831C153.156 18.7625 150.708 19.7791 147.762 19.9331C145.791 20.0362 144.043 19.7623 142.52 19.1115C140.997 18.4607 139.787 17.4893 138.889 16.1971C138.014 14.8794 137.53 13.3344 137.437 11.5619C137.329 9.49809 137.706 7.61584 138.568 5.91516C139.454 4.18893 140.712 2.80845 142.341 1.77372C143.994 0.713441 145.868 0.128585 147.961 0.0191525ZM152.856 8.16296C152.828 6.7036 152.415 5.59302 151.619 4.83122C150.821 4.04514 149.704 3.68964 148.268 3.76472C146.856 3.83852 145.612 4.32959 144.537 5.23793C143.486 6.145 142.766 7.30261 142.376 8.71076L152.856 8.16296Z" fill="#151D18"/>
<path d="M135.439 23.6681C134.552 25.3701 133.269 26.7275 131.589 27.7405C129.933 28.7523 128.023 29.3147 125.856 29.428C123.982 29.526 122.307 29.2362 120.831 28.5585C119.38 27.8797 118.23 26.8929 117.38 25.5982C117.07 25.1022 116.811 24.5743 116.605 24.0144L121.608 23.2648C121.818 23.6091 122.068 23.9228 122.36 24.2058C123.31 25.1056 124.528 25.5167 126.013 25.4391C127.181 25.378 128.213 25.0441 129.109 24.4373C130.004 23.8305 130.694 23.0153 131.177 21.9919L136.423 20.9591C136.223 21.9133 135.895 22.8163 135.439 23.6681Z" fill="#151D18"/>
<path d="M126.875 1.12171C128.713 1.03727 130.347 1.32917 131.775 1.99739C133.06 2.56669 134.099 3.38919 134.891 4.46488C135.008 4.62365 135.12 4.78795 135.226 4.95775C135.29 5.05767 135.353 5.15883 135.413 5.26121L136.462 5.20968V0.650898L126.875 1.12171Z" fill="#151D18"/>
<path d="M5.48755 5.2712C5.48755 6.53007 4.46445 7.55059 3.20239 7.55059C1.94034 7.55059 0.917236 6.53007 0.917236 5.2712C0.917236 4.01232 1.94034 2.99181 3.20239 2.99181C4.46445 2.99181 5.48755 4.01232 5.48755 5.2712Z" fill="#151D18"/>
<path d="M162.917 16.8831C162.917 18.142 161.894 19.1625 160.632 19.1625C159.37 19.1625 158.347 18.142 158.347 16.8831C158.347 15.6243 159.37 14.6037 160.632 14.6037C161.894 14.6037 162.917 15.6243 162.917 16.8831Z" fill="#151D18"/>
</svg>
