<svg width="149" height="104" viewBox="0 0 149 104" fill="none" xmlns="http://www.w3.org/2000/svg">
<path d="M6.9339 10.9992C8.11753 10.9375 9.17299 11.1402 10.1003 11.6075C11.0434 12.0573 11.7886 12.7169 12.3359 13.5865C12.8832 14.4561 13.1874 15.4714 13.2486 16.6325C13.3211 18.0092 13.0611 19.2618 12.4686 20.3904C11.8928 21.5181 11.063 22.4263 9.97927 23.1148C8.89465 23.7867 7.66884 24.1583 6.30184 24.2296C5.11822 24.2913 4.06319 24.0969 3.13676 23.6462C2.20946 23.179 1.47215 22.5106 0.924854 21.641C0.377553 20.7714 0.0733233 19.7561 0.0121659 18.595C-0.0603493 17.2183 0.191306 15.9661 0.767132 14.8384C1.35963 13.7098 2.18985 12.81 3.25779 12.1389C4.34153 11.4504 5.5669 11.0705 6.9339 10.9992ZM6.86119 12.4749C5.84427 12.5279 4.93215 12.825 4.12482 13.366C3.31662 13.8905 2.69351 14.5966 2.25549 15.4843C1.83414 16.3711 1.65186 17.3536 1.70865 18.4317C1.78029 19.7918 2.23849 20.8739 3.08324 21.6781C3.94467 22.4814 5.04221 22.8483 6.37587 22.7788C7.39279 22.7257 8.30534 22.437 9.11355 21.9125C9.92175 21.3881 10.5365 20.6824 10.9579 19.7956C11.3959 18.9079 11.5861 17.9167 11.5284 16.822C11.4568 15.4619 10.9902 14.3802 10.1288 13.5769C9.28405 12.7727 8.19485 12.4054 6.86119 12.4749Z" fill="#151D18"/>
<path d="M23.1684 10.1527C24.2686 10.0953 25.257 10.2933 26.1334 10.7465C27.0256 11.1823 27.7282 11.8276 28.2413 12.6823C28.7711 13.5362 29.0657 14.5271 29.1251 15.655C29.1976 17.0316 28.9473 18.3087 28.3741 19.4862C27.8 20.6471 26.9886 21.5875 25.94 22.3075C24.8904 23.0109 23.7072 23.3969 22.3902 23.4656C21.0732 23.5342 19.9392 23.269 18.9883 22.67C18.0531 22.0535 17.4053 21.1808 17.045 20.052L16.5072 23.6476L14.8318 23.7349L17.5603 5.08129L19.2357 4.99393L18.0297 13.0402C18.6195 12.1778 19.361 11.4988 20.2543 11.0032C21.1467 10.4909 22.1181 10.2074 23.1684 10.1527ZM22.7179 11.5982C21.701 11.6512 20.7814 11.9653 19.9592 12.5404C19.1527 13.098 18.523 13.8377 18.0701 14.7595C17.6329 15.6637 17.4423 16.6467 17.4982 17.7082C17.569 19.0517 18.0347 20.1168 18.8952 20.9035C19.7558 21.6903 20.8445 22.0493 22.1615 21.9806C23.1784 21.9276 24.0985 21.6218 24.9216 21.0633C25.7438 20.4882 26.3814 19.7398 26.8344 18.818C27.2873 17.8963 27.4858 16.9047 27.4299 15.8431C27.36 14.5162 26.8865 13.4598 26.0092 12.674C25.1487 11.8872 24.0516 11.5287 22.7179 11.5982Z" fill="#151D18"/>
<path d="M34.7406 22.8715C33.6236 22.9297 32.5453 22.7697 31.5057 22.3915C30.4652 21.9967 29.6507 21.4487 29.0621 20.7476L29.8533 19.5837C30.4033 20.187 31.1139 20.6656 31.9851 21.0193C32.8554 21.3565 33.749 21.5012 34.6659 21.4533C35.5494 21.4073 36.2637 21.1621 36.8086 20.7179C37.3694 20.2562 37.6319 19.6854 37.596 19.0053C37.5663 18.4414 37.3093 18.0057 36.8251 17.6984C36.34 17.3744 35.6206 17.046 34.6669 16.7132C33.8835 16.438 33.243 16.1804 32.7456 15.9402C32.2648 15.6991 31.8464 15.3717 31.4903 14.9578C31.1341 14.544 30.939 14.0136 30.9049 13.3667C30.8464 12.2554 31.2164 11.3463 32.015 10.6394C32.8294 9.91504 33.8951 9.51851 35.2121 9.44984C36.129 9.40203 37.0037 9.50611 37.8363 9.76207C38.6847 10.0006 39.405 10.3456 39.9971 10.797L39.2098 12.0356C38.6545 11.6487 38.0202 11.3491 37.3069 11.1369C36.6103 10.9237 35.9203 10.8349 35.2368 10.8706C34.4199 10.9132 33.7548 11.1391 33.2414 11.5484C32.7447 11.9569 32.513 12.4762 32.5462 13.1065C32.575 13.6539 32.8232 14.0817 33.2908 14.3899C33.7575 14.6816 34.476 14.9934 35.4464 15.3253C36.2465 15.5996 36.8953 15.8569 37.3927 16.097C37.9068 16.3363 38.3423 16.6712 38.6993 17.1017C39.073 17.5312 39.2773 18.0778 39.3123 18.7412C39.3734 19.9023 38.9727 20.8629 38.11 21.623C37.2474 22.3832 36.1242 22.7993 34.7406 22.8715Z" fill="#151D18"/>
<path d="M42.2949 16.3404L42.2988 16.415C42.3713 17.7917 42.8379 18.8734 43.6984 19.6601C44.5757 20.446 45.7061 20.8028 47.0898 20.7307C47.89 20.689 48.6415 20.5167 49.3444 20.214C50.0472 19.9112 50.6606 19.4967 51.1845 18.9704L52.0424 20.0234C51.4237 20.6544 50.6892 21.1501 49.8389 21.5104C48.9886 21.8708 48.0717 22.0766 47.0881 22.1279C45.8712 22.1913 44.7828 21.9986 43.823 21.5497C42.8799 21.0999 42.1264 20.4406 41.5624 19.5719C41.0151 18.7023 40.7105 17.6787 40.6484 16.5011C40.5768 15.141 40.8289 13.8971 41.4047 12.7693C41.9797 11.625 42.8007 10.709 43.8677 10.0214C44.9515 9.33286 46.1602 8.95382 47.4938 8.88428C49.2276 8.79388 50.6217 9.23678 51.6761 10.213C52.7472 11.1883 53.3282 12.5385 53.419 14.2635C53.4409 14.6781 53.4254 15.1779 53.3726 15.7628L42.2949 16.3404ZM47.5685 10.3024C46.2182 10.3728 45.0643 10.8405 44.1069 11.7054C43.1661 12.5694 42.589 13.6722 42.3755 15.0139L51.9278 14.5159C51.872 13.1383 51.4568 12.0789 50.6822 11.3376C49.9234 10.5788 48.8855 10.2337 47.5685 10.3024Z" fill="#151D18"/>
<path d="M57.9476 11.333C58.5304 10.3379 59.2588 9.56812 60.1328 9.02359C61.0059 8.46247 62.0005 8.1445 63.1166 8.06967L63.0017 9.69728C61.6339 9.75197 60.455 10.2209 59.4651 11.1041C58.491 11.9699 57.8322 13.1103 57.4888 14.5253L56.4555 21.5646L54.78 21.6519L56.694 8.47941L58.3944 8.39074L57.9476 11.333Z" fill="#151D18"/>
<path d="M75.3388 7.50722L68.1986 20.9523L66.4481 21.0435L63.1358 8.14351L64.9112 8.05094L67.5356 19.3153L73.5633 7.59979L75.3388 7.50722Z" fill="#151D18"/>
<path d="M79.8 20.4471C78.6997 20.5045 77.7035 20.3153 76.8113 19.8795C75.9349 19.4262 75.2318 18.7726 74.702 17.9188C74.1889 17.064 73.9027 16.0727 73.8433 14.9448C73.7708 13.5682 74.0215 12.2994 74.5956 11.1385C75.1688 9.96098 75.9802 9.02055 77.0297 8.31717C78.0784 7.59722 79.2612 7.2029 80.5782 7.13423C81.8952 7.06556 83.0208 7.33119 83.9551 7.93112C84.9061 8.53018 85.5617 9.39412 85.9221 10.5229L86.4599 6.92733L88.1353 6.83997L86.2213 20.0125L84.5459 20.0999L84.9387 17.5596C84.3489 18.422 83.6078 19.1093 82.7153 19.6215C81.822 20.1171 80.8503 20.3924 79.8 20.4471ZM80.2504 19.0016C81.2507 18.9494 82.1624 18.6441 82.9855 18.0856C83.8077 17.5105 84.437 16.7625 84.8733 15.8416C85.3262 14.9199 85.5247 13.9283 85.4688 12.8667C85.3989 11.5398 84.9337 10.483 84.0732 9.69627C83.2126 8.90954 82.1238 8.55051 80.8068 8.61918C79.7899 8.67221 78.8703 8.98627 78.0481 9.56137C77.225 10.1199 76.5869 10.86 76.134 11.7817C75.681 12.7035 75.4825 13.6951 75.5384 14.7567C75.6083 16.0836 76.0736 17.1404 76.9341 17.9271C77.8113 18.713 78.9168 19.0711 80.2504 19.0016Z" fill="#151D18"/>
<path d="M92.6201 15.8618C92.57 16.1804 92.5528 16.489 92.5686 16.7876C92.5948 17.2852 92.7224 17.6444 92.9513 17.8653C93.1961 18.0688 93.5518 18.1583 94.0186 18.134C94.767 18.0617 95.5291 17.7725 96.3048 17.2663L96.7257 18.5916C95.7569 19.2409 94.7649 19.6086 93.7498 19.6948C92.8996 19.7391 92.2209 19.55 91.7139 19.1274C91.2068 18.7047 90.9306 18.0622 90.8852 17.1997C90.8695 16.9011 90.8915 16.5258 90.9512 16.0736L92.0967 8.30493L90.1962 8.40403L90.3768 7.07237L92.2773 6.97327L92.7768 3.6042L94.4522 3.51684L93.9527 6.88591L98.1787 6.66555L97.9981 7.99721L93.7471 8.21887L92.6201 15.8618Z" fill="#151D18"/>
<path d="M104.809 5.8957C105.993 5.83398 107.049 6.03674 107.976 6.50398C108.919 6.95376 109.664 7.61345 110.211 8.48304C110.759 9.35262 111.063 10.3679 111.124 11.529C111.197 12.9057 110.937 14.1583 110.344 15.2869C109.768 16.4146 108.939 17.3228 107.855 18.0113C106.77 18.6832 105.544 19.0548 104.177 19.1261C102.994 19.1878 101.939 18.9934 101.012 18.5427C100.085 18.0755 99.3477 17.4071 98.8004 16.5375C98.2531 15.6679 97.9489 14.6526 97.8877 13.4915C97.8152 12.1148 98.0668 10.8626 98.6427 9.73491C99.2352 8.6063 100.065 7.70647 101.133 7.0354C102.217 6.34688 103.442 5.96697 104.809 5.8957ZM104.737 7.37142C103.72 7.42444 102.808 7.72148 102 8.26254C101.192 8.787 100.569 9.49309 100.131 10.3808C99.7097 11.2676 99.5274 12.2501 99.5842 13.3282C99.6558 14.6883 100.114 15.7704 100.959 16.5746C101.82 17.3779 102.918 17.7448 104.251 17.6753C105.268 17.6223 106.181 17.3335 106.989 16.809C107.797 16.2846 108.412 15.5789 108.833 14.6921C109.271 13.8044 109.462 12.8132 109.404 11.7185C109.332 10.3584 108.866 9.27669 108.004 8.47338C107.16 7.6692 106.07 7.30188 104.737 7.37142ZM106.87 0.274735L108.636 0.956035L105.617 3.60829L104.107 3.51236L106.87 0.274735Z" fill="#151D18"/>
<path d="M115.75 8.31899C116.333 7.32395 117.061 6.55416 117.935 6.00963C118.808 5.44851 119.803 5.13053 120.919 5.05571L120.804 6.68331C119.436 6.73801 118.257 7.20696 117.267 8.09017C116.293 8.95593 115.634 10.0963 115.291 11.5113L114.258 18.5506L112.582 18.638L114.496 5.46544L116.197 5.37678L115.75 8.31899Z" fill="#151D18"/>
<path d="M124.206 4.95916L122.292 18.1317L120.616 18.219L122.53 5.04652L124.206 4.95916ZM124.07 0.00159688C124.353 -0.0131805 124.584 0.0746032 124.761 0.264948C124.954 0.437836 125.058 0.665265 125.073 0.947234C125.093 1.32872 124.969 1.66784 124.7 1.96459C124.431 2.24475 124.104 2.39482 123.721 2.41481C123.454 2.42872 123.224 2.34923 123.031 2.17634C122.837 1.98687 122.733 1.75115 122.718 1.46918C122.698 1.08769 122.823 0.756866 123.092 0.476706C123.361 0.17996 123.687 0.0215898 124.07 0.00159688Z" fill="#151D18"/>
<path d="M132.599 4.44665C133.783 4.38493 134.839 4.58769 135.766 5.05493C136.709 5.50472 137.454 6.1644 138.001 7.03399C138.549 7.90358 138.853 8.9189 138.914 10.0799C138.987 11.4566 138.727 12.7093 138.134 13.8379C137.558 14.9656 136.729 15.8737 135.645 16.5623C134.56 17.2342 133.334 17.6058 131.967 17.6771C130.784 17.7388 129.729 17.5443 128.802 17.0937C127.875 16.6264 127.138 15.958 126.59 15.0884C126.043 14.2188 125.739 13.2035 125.678 12.0425C125.605 10.6658 125.857 9.4136 126.433 8.28586C127.025 7.15726 127.855 6.25742 128.923 5.58636C130.007 4.89783 131.232 4.51793 132.599 4.44665ZM132.527 5.92237C131.51 5.9754 130.598 6.27244 129.79 6.81349C128.982 7.33796 128.359 8.04405 127.921 8.93175C127.5 9.81858 127.317 10.8011 127.374 11.8792C127.446 13.2393 127.904 14.3214 128.749 15.1256C129.61 15.9289 130.708 16.2958 132.041 16.2262C133.058 16.1732 133.971 15.8845 134.779 15.36C135.587 14.8355 136.202 14.1299 136.623 13.243C137.061 12.3553 137.252 11.3641 137.194 10.2694C137.122 8.90935 136.656 7.82765 135.794 7.02433C134.95 6.22015 133.86 5.85283 132.527 5.92237Z" fill="#151D18"/>
<path d="M7.23989 49.1785C6.13962 49.2359 5.14338 49.0467 4.25116 48.6109C3.37474 48.1576 2.67165 47.5041 2.1419 46.6502C1.62881 45.7955 1.34256 44.8041 1.28315 43.6763C1.21064 42.2996 1.46142 41.0308 2.0355 39.8699C2.6087 38.6924 3.42007 37.752 4.46959 37.0486C5.51825 36.3286 6.70107 35.9343 8.01805 35.8657C9.33504 35.797 10.4607 36.0626 11.395 36.6625C12.3459 37.2616 13.0016 38.1255 13.362 39.2544L14.7143 30.1776L16.3897 30.0903L13.6612 48.7439L11.9858 48.8313L12.3786 46.2911C11.7888 47.1534 11.0477 47.8407 10.1552 48.3529C9.26192 48.8486 8.29014 49.1238 7.23989 49.1785ZM7.69032 47.733C8.69056 47.6809 9.60225 47.3755 10.4254 46.817C11.2476 46.2419 11.8769 45.4939 12.3132 44.5731C12.7661 43.6513 12.9646 42.6597 12.9087 41.5982C12.8388 40.2712 12.3736 39.2144 11.513 38.4277C10.6525 37.641 9.56371 37.2819 8.24672 37.3506C7.22981 37.4036 6.31022 37.7177 5.48797 38.2928C4.66485 38.8513 4.02681 39.5914 3.57387 40.5132C3.12093 41.4349 2.92241 42.4266 2.97833 43.4881C3.04822 44.815 3.51344 45.8718 4.37399 46.6585C5.25122 47.4444 6.35666 47.8026 7.69032 47.733Z" fill="#151D18"/>
<path d="M23.0885 48.3522C21.9882 48.4095 20.992 48.2203 20.0998 47.7845C19.2233 47.3312 18.5203 46.6777 17.9905 45.8238C17.4774 44.9691 17.1912 43.9778 17.1318 42.8499C17.0592 41.4732 17.31 40.2044 17.8841 39.0435C18.4573 37.866 19.2687 36.9256 20.3182 36.2222C21.3669 35.5023 22.5497 35.1079 23.8667 35.0393C25.1837 34.9706 26.3093 35.2362 27.2436 35.8362C28.1946 36.4352 28.8502 37.2992 29.2106 38.428L29.7483 34.8324L31.4238 34.745L29.5098 47.9175L27.8344 48.0049L28.2272 45.4647C27.6374 46.327 26.8963 47.0143 26.0038 47.5265C25.1105 48.0222 24.1388 48.2974 23.0885 48.3522ZM23.5389 46.9066C24.5392 46.8545 25.4509 46.5491 26.274 45.9906C27.0962 45.4155 27.7255 44.6676 28.1618 43.7467C28.6147 42.8249 28.8132 41.8333 28.7573 40.7718C28.6874 39.4449 28.2222 38.388 27.3616 37.6013C26.5011 36.8146 25.4123 36.4556 24.0953 36.5242C23.0784 36.5772 22.1588 36.8913 21.3366 37.4664C20.5135 38.0249 19.8754 38.765 19.4225 39.6868C18.9695 40.6085 18.771 41.6002 18.8269 42.6617C18.8968 43.9886 19.3621 45.0454 20.2226 45.8322C21.0998 46.618 22.2053 46.9762 23.5389 46.9066Z" fill="#151D18"/>
<path d="M40.0469 34.495L43.1977 34.3307L42.8324 37.3934L42.9575 37.3868C43.1813 36.8762 43.4161 36.4149 43.6619 36.0029C43.9234 35.5735 44.2218 35.2087 44.5571 34.9084C44.8914 34.5916 45.271 34.339 45.6957 34.1505C46.137 33.9612 46.6328 33.8522 47.1829 33.8235C48.5166 33.754 49.5154 34.1509 50.1794 35.0144C50.8425 35.8614 51.2147 37.0561 51.296 38.5986C51.3563 39.7431 51.2801 40.8364 51.0675 41.8787C50.8717 42.9201 50.5358 43.8441 50.0601 44.6506C49.6002 45.4396 49.0069 46.0776 48.2803 46.5646C47.5537 47.0515 46.707 47.3202 45.7401 47.3706C44.7398 47.4228 43.9528 47.2393 43.3791 46.8201C42.8045 46.3844 42.3866 45.7492 42.1253 44.9146L41.9753 44.9224L41.1353 52.3009L37.9845 52.4652L40.0469 34.495ZM44.6088 44.9348C45.6257 44.8818 46.3935 44.5424 46.9122 43.9166C47.4309 43.2908 47.7469 42.4677 47.8603 41.4472L48.0291 39.8916C48.0546 39.7406 48.07 39.5569 48.0753 39.3404C48.0964 39.1064 48.1017 38.8899 48.0913 38.6909C48.0537 37.9777 47.8647 37.4054 47.5244 36.9741C47.2007 36.5419 46.6805 36.3445 45.9636 36.3819C45.4802 36.4071 45.0441 36.5379 44.6554 36.7744C44.2833 37.01 43.9331 37.3443 43.6049 37.7772C43.3863 38.0713 43.1638 38.4488 42.9374 38.9097C42.71 39.354 42.5612 39.8607 42.4909 40.4299L42.239 42.7881C42.1432 43.5083 42.2975 44.0574 42.7019 44.4355C43.1229 44.8127 43.7586 44.9791 44.6088 44.9348Z" fill="#151D18"/>
<path d="M57.8708 46.7381C57.0206 46.7824 56.2472 46.698 55.5506 46.4849C54.8697 46.2542 54.2833 45.9106 53.7912 45.4539C53.3157 44.9964 52.9351 44.4341 52.6492 43.7671C52.38 43.0993 52.2235 42.3507 52.1798 41.5213C52.1152 40.2939 52.2321 39.1818 52.5307 38.185C52.8292 37.1881 53.2773 36.3332 53.875 35.6201C54.4718 34.8904 55.194 34.3205 56.0416 33.9104C56.906 33.4995 57.8633 33.2666 58.9135 33.2118C59.7637 33.1675 60.5292 33.2606 61.2101 33.4913C61.9067 33.7044 62.4927 34.0398 62.9681 34.4973C63.4603 34.954 63.8409 35.5162 64.1101 36.1841C64.396 36.8511 64.5608 37.5993 64.6045 38.4286C64.6691 39.656 64.5522 40.7681 64.2536 41.765C63.9551 42.7618 63.5074 43.6251 62.9106 44.3547C62.313 45.0678 61.582 45.6298 60.7176 46.0408C59.87 46.4509 58.921 46.6833 57.8708 46.7381ZM57.9687 44.313C58.9023 44.2644 59.6297 43.952 60.151 43.376C60.6881 42.7825 61.0213 41.9668 61.1505 40.9288L61.3575 39.1468C61.3804 38.946 61.3949 38.7456 61.4011 38.5457C61.4239 38.345 61.4314 38.1699 61.4236 38.0206C61.379 37.1747 61.1207 36.5562 60.6488 36.165C60.1935 35.7729 59.5824 35.5969 58.8156 35.6369C57.882 35.6856 57.1467 36.0067 56.6096 36.6001C56.0883 37.1762 55.763 37.9832 55.6338 39.0211L55.4268 40.8032C55.4039 41.004 55.3811 41.2047 55.3582 41.4055C55.352 41.6054 55.3529 41.78 55.3607 41.9293C55.4053 42.7752 55.6552 43.3942 56.1105 43.7862C56.5825 44.1774 57.2019 44.353 57.9687 44.313Z" fill="#151D18"/>
<path d="M71.2768 46.0391C70.3432 46.0877 69.6471 45.8829 69.1883 45.4245C68.7295 44.9661 68.4792 44.3388 68.4372 43.5427C68.425 43.3104 68.4211 43.0778 68.4255 42.8447C68.4466 42.6108 68.4888 42.3009 68.5521 41.915L70.1723 29.8306L66.1463 30.0405L66.4403 27.5304L73.6671 27.1536L71.463 43.3849L71.9209 43.5107L75.6977 39.5217L77.5307 40.9978L75.7812 43.01C74.8833 44.0548 74.0957 44.811 73.4183 45.2788C72.7408 45.7465 72.027 46 71.2768 46.0391Z" fill="#151D18"/>
<path d="M85.789 30.6379L83.8861 29.7392L86.472 25.0389L89.0434 26.252L85.789 30.6379ZM85.358 45.3048C84.4578 45.3518 83.762 45.1552 83.2708 44.7151C82.7787 44.2585 82.5116 43.6321 82.4697 42.8359C82.4575 42.6037 82.4615 42.3623 82.4817 42.1118C82.5019 41.8613 82.5433 41.5348 82.6056 41.1324L83.4968 34.7242L79.3457 34.9406L79.6398 32.4305L86.9666 32.0484L85.4941 42.6533L85.9771 42.7778L89.7052 38.8162L91.5382 40.2924L89.8847 42.2247C89.0036 43.2686 88.2164 44.0331 87.5231 44.5183C86.8465 45.0027 86.1248 45.2649 85.358 45.3048Z" fill="#151D18"/>
<path d="M98.1889 44.6358C97.2386 44.6854 96.5253 44.4731 96.049 43.9989C95.5718 43.5082 95.311 42.8399 95.2664 41.994C95.2568 41.8116 95.2625 41.6034 95.2836 41.3694C95.3048 41.1355 95.3325 40.8679 95.3667 40.5668L96.1026 34.0669L92.6767 34.2455L92.9708 31.7354L95.1963 31.6193C95.6965 31.5933 96.0663 31.4742 96.3059 31.2621C96.5621 31.0492 96.718 30.6751 96.7734 30.14L97.1334 26.9778L100.059 26.8252L99.5474 31.3925L104.674 31.1252L104.38 33.6353L99.2533 33.9026L98.3671 41.8323L98.8778 42.0053L103.107 38.5166L104.753 40.252L102.931 41.8438C102.404 42.3038 101.932 42.7109 101.516 43.0652C101.099 43.403 100.705 43.6896 100.333 43.9253C99.9767 44.1434 99.6261 44.3114 99.2813 44.4292C98.9364 44.5469 98.5723 44.6158 98.1889 44.6358Z" fill="#151D18"/>
<path d="M112.671 28.6624C111.971 28.6989 111.472 28.5919 111.175 28.3413C110.894 28.0898 110.743 27.7733 110.723 27.3918C110.719 27.3089 110.722 27.2007 110.731 27.0671C110.741 26.9335 110.756 26.7498 110.778 26.5158C110.836 26.0305 111.016 25.6469 111.319 25.365C111.637 25.0656 112.147 24.8977 112.847 24.8612C113.547 24.8247 114.037 24.9321 114.318 25.1836C114.616 25.4342 114.774 25.7503 114.794 26.1318C114.799 26.2147 114.796 26.3229 114.786 26.4565C114.777 26.5901 114.761 26.7738 114.74 27.0078C114.682 27.4931 114.494 27.8855 114.175 28.1848C113.873 28.4667 113.371 28.6259 112.671 28.6624ZM112.22 43.9042C111.32 43.9511 110.624 43.7546 110.133 43.3145C109.641 42.8578 109.374 42.2314 109.332 41.4353C109.32 41.203 109.324 40.9617 109.344 40.7111C109.364 40.4606 109.405 40.1341 109.468 39.7317L110.359 33.3235L106.208 33.54L106.502 31.0298L113.829 30.6478L112.356 41.2526L112.839 41.3771L116.567 37.4156L118.4 38.8917L116.747 40.8241C115.866 41.8679 115.078 42.6325 114.385 43.1177C113.709 43.602 112.987 43.8642 112.22 43.9042Z" fill="#151D18"/>
<path d="M125.201 43.2273C123.484 43.3169 122.15 42.9041 121.199 41.989C120.265 41.0731 119.753 39.7692 119.664 38.0774C119.605 36.9495 119.707 35.888 119.973 34.8929C120.255 33.8969 120.677 33.0267 121.239 32.2822C121.801 31.5211 122.505 30.9189 123.351 30.4756C124.196 30.0157 125.16 29.7576 126.244 29.7011C127.694 29.6254 128.819 29.8745 129.618 30.4482C130.416 31.0053 130.965 31.7418 131.264 32.6576L128.75 33.9612C128.518 33.358 128.21 32.9166 127.828 32.6372C127.445 32.3577 126.879 32.2376 126.129 32.2767C125.295 32.3202 124.617 32.6216 124.095 33.1811C123.572 33.7239 123.247 34.5309 123.119 35.602L122.948 37.1078C122.924 37.292 122.91 37.4923 122.904 37.7088C122.898 37.9087 122.9 38.0999 122.909 38.2824C122.951 39.0785 123.184 39.6818 123.607 40.0922C124.046 40.5017 124.699 40.6838 125.566 40.6386C125.833 40.6247 126.09 40.5864 126.337 40.5236C126.601 40.4433 126.869 40.2963 127.142 40.0825C127.431 39.8678 127.741 39.5689 128.072 39.1857C128.419 38.7851 128.809 38.2575 129.243 37.6029L131.335 38.7661C130.936 39.4522 130.534 40.0636 130.128 40.6004C129.721 41.1372 129.277 41.5927 128.795 41.9671C128.314 42.3415 127.778 42.6356 127.187 42.8493C126.613 43.0622 125.951 43.1882 125.201 43.2273Z" fill="#151D18"/>
<path d="M136.556 42.6352C135.289 42.7013 134.342 42.3183 133.713 41.4862C133.083 40.6376 132.724 39.3839 132.637 37.7253C132.578 36.614 132.647 35.5459 132.844 34.5211C133.058 33.4954 133.386 32.5885 133.829 31.8003C134.289 31.0113 134.866 30.3741 135.559 29.8889C136.269 29.4028 137.099 29.135 138.049 29.0855C139 29.0359 139.754 29.2295 140.312 29.6661C140.869 30.0861 141.286 30.713 141.564 31.5467L141.689 31.5402L141.966 29.1806L145.117 29.0163L143.917 39.5571L145.367 39.4814L145.093 41.8907L143.342 41.982C142.442 42.0289 141.764 41.8398 141.307 41.4146C140.866 40.9885 140.691 40.3656 140.782 39.5459L140.832 39.0693L140.732 39.0745C140.508 39.5851 140.265 40.0551 140.004 40.4846C139.758 40.8966 139.468 41.261 139.134 41.5778C138.815 41.8771 138.443 42.121 138.019 42.3095C137.594 42.498 137.107 42.6065 136.556 42.6352ZM137.801 40.0755C138.668 40.0303 139.429 39.5665 140.084 38.6841C140.303 38.39 140.526 38.0125 140.752 37.5516C140.994 37.0733 141.143 36.5666 141.198 36.0314L141.45 33.6732C141.532 33.0037 141.387 32.4707 141.015 32.0743C140.642 31.6613 140.031 31.477 139.181 31.5213C138.18 31.5734 137.438 31.9116 136.952 32.5356C136.484 33.1588 136.193 33.9806 136.079 35.0011L135.891 36.6575C135.865 36.8085 135.849 36.9757 135.842 37.159C135.835 37.3423 135.837 37.5501 135.849 37.7823C135.887 38.4955 136.059 39.0686 136.366 39.5017C136.672 39.9182 137.151 40.1094 137.801 40.0755Z" fill="#151D18"/>
<path d="M8.83595 74.2429C7.00217 74.3385 5.60194 73.9375 4.63524 73.0399C3.68435 72.1248 3.1626 70.7882 3.06999 69.03C3.00796 67.8524 3.12621 66.7651 3.42475 65.7683C3.73996 64.7706 4.2043 63.9064 4.81776 63.1759C5.43123 62.4454 6.18636 61.8655 7.08316 61.4362C7.97995 61.0069 8.98682 60.7631 10.1038 60.7049C10.7539 60.671 11.358 60.7143 11.916 60.8349C12.4907 60.9546 12.9942 61.1529 13.4267 61.4297C13.875 61.6891 14.2277 62.0366 14.4846 62.4723C14.7574 62.8905 14.9091 63.3898 14.9397 63.9704C14.9659 64.4679 14.8842 64.9795 14.6945 65.505C14.504 66.0139 14.103 66.4921 13.4913 66.9398C12.8797 67.3875 11.9899 67.7915 10.822 68.1518C9.66989 68.4946 8.14536 68.7487 6.24839 68.9142C6.23696 69.0146 6.23343 69.1062 6.2378 69.1892C6.24129 69.2555 6.24435 69.3136 6.24697 69.3633C6.28716 70.1263 6.5112 70.73 6.91909 71.1744C7.34365 71.618 8.06439 71.8132 9.08131 71.7602C9.4814 71.7393 9.83808 71.6875 10.1513 71.6046C10.4637 71.5052 10.7568 71.3568 11.0306 71.1596C11.3202 70.9449 11.5988 70.6809 11.8665 70.3676C12.1508 70.0534 12.4479 69.6637 12.7577 69.1985L14.8251 70.363C14.5021 70.8954 14.1523 71.396 13.7758 71.8647C13.4151 72.3159 12.993 72.7122 12.5094 73.0534C12.0426 73.3937 11.5051 73.6629 10.897 73.861C10.3065 74.0747 9.61948 74.202 8.83595 74.2429ZM9.92425 63.0094C8.97402 63.059 8.19658 63.3739 7.59192 63.9543C7.00306 64.5173 6.61592 65.4189 6.43052 66.6594L6.37515 67.0365C7.65531 66.9032 8.65777 66.7345 9.38255 66.5304C10.124 66.3254 10.6808 66.1051 11.0528 65.8695C11.4249 65.6339 11.6544 65.3891 11.7413 65.135C11.844 64.8636 11.8893 64.6117 11.877 64.3795C11.8534 63.9317 11.6846 63.5829 11.3706 63.3332C11.0732 63.0826 10.5911 62.9747 9.92425 63.0094Z" fill="#151D18"/>
<path d="M24.517 70.0822L24.4169 70.0874C24.1931 70.598 23.9504 71.0681 23.6888 71.4975C23.4431 71.9095 23.153 72.2739 22.8186 72.5907C22.4834 72.8909 22.0951 73.1357 21.6537 73.325C21.229 73.5135 20.7416 73.6221 20.1915 73.6507C18.8578 73.7203 17.8594 73.3316 17.1963 72.4847C16.5323 71.6212 16.1597 70.4182 16.0784 68.8756C16.0181 67.7312 16.0859 66.6382 16.2818 65.5968C16.4944 64.5546 16.8307 63.6389 17.2906 62.8499C17.7663 62.0434 18.3675 61.3966 19.0941 60.9097C19.8207 60.4227 20.6674 60.154 21.6343 60.1036C22.6346 60.0515 23.422 60.2433 23.9966 60.679C24.5703 61.0981 24.9878 61.725 25.2491 62.5596L25.3741 62.5531L26.2827 54.5723L29.4335 54.408L27.3275 72.9793L24.1767 73.1436L24.517 70.0822ZM21.4107 71.0924C21.8942 71.0672 22.322 70.9368 22.694 70.7011C23.0828 70.4647 23.4413 70.13 23.7695 69.697C23.988 69.4029 24.2031 69.0424 24.4146 68.6156C24.642 68.1713 24.7908 67.6646 24.8611 67.0954L25.1354 64.6861C25.2312 63.966 25.0686 63.4173 24.6475 63.04C24.2431 62.662 23.6158 62.4951 22.7656 62.5394C21.7487 62.5925 20.9809 62.9319 20.4622 63.5577C19.9435 64.1835 19.6275 65.0066 19.5141 66.027L19.3255 67.6834C19.3 67.8345 19.2842 68.0099 19.278 68.2098C19.2709 68.3932 19.2727 68.5843 19.2831 68.7834C19.3207 69.4966 19.5013 70.0693 19.825 70.5015C20.1653 70.9328 20.6939 71.1298 21.4107 71.0924Z" fill="#151D18"/>
<path d="M37.848 69.3871L37.7229 69.3936C37.2936 70.4472 36.7697 71.2894 36.1509 71.9205C35.5322 72.5515 34.7061 72.8939 33.6725 72.9478C33.0724 72.9791 32.542 72.907 32.0814 72.7314C31.6383 72.5715 31.2664 72.3332 30.9655 72.0162C30.6646 71.6992 30.4274 71.3208 30.2537 70.8808C30.0968 70.4399 30.0043 69.9541 29.9764 69.4233C29.9441 68.8096 29.9855 68.0091 30.1006 67.0218L30.905 59.9196L34.0558 59.7553L33.2171 67.1587C33.196 67.3926 33.1674 67.6436 33.1314 67.9116C33.112 68.1787 33.1093 68.445 33.1233 68.7103C33.1478 69.1748 33.2947 69.5829 33.5639 69.9348C33.8332 70.2866 34.2763 70.4465 34.8931 70.4143C35.3765 70.3891 35.7876 70.2596 36.1264 70.0257C36.4642 69.7752 36.7815 69.451 37.0781 69.053C37.2493 68.8112 37.4643 68.4507 37.7233 67.9715C37.9813 67.4758 38.1446 66.9267 38.2132 66.3244L38.982 59.4984L42.1328 59.3341L40.6585 72.2842L37.5077 72.4485L37.848 69.3871Z" fill="#151D18"/>
<path d="M48.929 72.1523C47.2119 72.2418 45.8779 71.8291 44.927 70.914C43.9928 69.998 43.4811 68.6942 43.392 67.0024C43.3326 65.8745 43.4355 64.813 43.7007 63.8179C43.9825 62.8219 44.4048 61.9516 44.9674 61.2071C45.5291 60.446 46.2329 59.8439 47.0788 59.4006C47.9238 58.9407 48.8881 58.6825 49.9717 58.626C51.4221 58.5504 52.5468 58.7994 53.346 59.3732C54.1443 59.9303 54.693 60.6667 54.992 61.5826L52.4779 62.8862C52.2456 62.2829 51.9381 61.8416 51.5556 61.5621C51.1732 61.2827 50.6068 61.1626 49.8566 61.2017C49.0231 61.2451 48.3453 61.5466 47.8231 62.106C47.3 62.6489 46.9748 63.4559 46.8473 64.527L46.6759 66.0328C46.6521 66.217 46.6376 66.4173 46.6323 66.6338C46.6261 66.8337 46.6278 67.0249 46.6374 67.2073C46.6794 68.0035 46.9118 68.6068 47.3346 69.0171C47.7741 69.4267 48.4272 69.6088 49.2941 69.5636C49.5608 69.5497 49.8179 69.5114 50.0654 69.4486C50.3286 69.3683 50.5967 69.2213 50.8696 69.0075C51.1592 68.7928 51.4694 68.4939 51.8003 68.1107C52.147 67.7101 52.5371 67.1825 52.9707 66.5278L55.063 67.6911C54.6645 68.3772 54.2621 68.9886 53.8557 69.5253C53.4494 70.0621 53.0053 70.5177 52.5235 70.8921C52.0417 71.2665 51.5056 71.5606 50.9151 71.7743C50.3412 71.9872 49.6792 72.1132 48.929 72.1523Z" fill="#151D18"/>
<path d="M60.2845 71.5602C59.0175 71.6263 58.0696 71.2433 57.4407 70.4112C56.8109 69.5625 56.4523 68.3089 56.3649 66.6502C56.3064 65.5389 56.3755 64.4709 56.5723 63.4461C56.7857 62.4204 57.1141 61.5135 57.5573 60.7253C58.0173 59.9362 58.5939 59.2991 59.2871 58.8139C59.997 58.3278 60.8271 58.06 61.7774 58.0105C62.7276 57.9609 63.4817 58.1544 64.0396 58.591C64.5966 59.0111 65.0141 59.6379 65.2921 60.4717L65.4171 60.4652L65.694 58.1056L68.8448 57.9413L67.6448 68.482L69.0951 68.4064L68.8209 70.8157L67.0704 70.907C66.1702 70.9539 65.4916 70.7648 65.0346 70.3395C64.5942 69.9134 64.4193 69.2905 64.5099 68.4709L64.56 67.9942L64.46 67.9994C64.2361 68.5101 63.9934 68.9801 63.7318 69.4095C63.4861 69.8215 63.196 70.1859 62.8616 70.5027C62.5431 70.8021 62.1714 71.046 61.7467 71.2345C61.322 71.4229 60.8346 71.5315 60.2845 71.5602ZM61.5288 69.0005C62.3957 68.9553 63.1569 68.4915 63.8125 67.6091C64.0311 67.315 64.2536 66.9374 64.48 66.4766C64.7223 65.9982 64.8711 65.4915 64.9265 64.9564L65.1784 62.5982C65.2602 61.9286 65.1151 61.3957 64.7432 60.9993C64.3704 60.5863 63.7589 60.4019 62.9086 60.4463C61.9084 60.4984 61.1656 60.8365 60.6803 61.4606C60.2116 62.0838 59.9206 62.9056 59.8071 63.9261L59.6186 65.5825C59.5931 65.7335 59.5768 65.9006 59.5698 66.084C59.5627 66.2673 59.5653 66.475 59.5775 66.7073C59.6151 67.4205 59.7874 67.9936 60.0944 68.4267C60.4005 68.8431 60.8786 69.0344 61.5288 69.0005Z" fill="#151D18"/>
<path d="M75.791 70.7516C74.0739 70.8412 72.7399 70.4284 71.789 69.5133C70.8548 68.5974 70.3432 67.2935 70.254 65.6017C70.1946 64.4738 70.2975 63.4123 70.5627 62.4172C70.8446 61.4212 71.2668 60.551 71.8294 59.8065C72.3911 59.0454 73.0949 58.4432 73.9408 57.9999C74.7859 57.5401 75.7502 57.2819 76.8338 57.2254C78.2841 57.1497 79.4089 57.3988 80.2081 57.9725C81.0064 58.5296 81.555 59.2661 81.854 60.1819L79.34 61.4855C79.1076 60.8823 78.8002 60.4409 78.4177 60.1615C78.0352 59.8821 77.4689 59.7619 76.7187 59.801C75.8852 59.8445 75.2073 60.1459 74.6851 60.7054C74.1621 61.2482 73.8368 62.0552 73.7094 63.1263L73.5379 64.6321C73.5142 64.8163 73.4997 65.0167 73.4944 65.2332C73.4882 65.4331 73.4899 65.6242 73.4995 65.8067C73.5414 66.6028 73.7738 67.2061 74.1966 67.6165C74.6361 68.026 75.2893 68.2082 76.1562 68.163C76.4229 68.149 76.68 68.1107 76.9274 68.0479C77.1907 67.9677 77.4587 67.8206 77.7317 67.6068C78.0212 67.3921 78.3315 67.0932 78.6623 66.71C79.009 66.3094 79.3991 65.7818 79.8327 65.1272L81.925 66.2904C81.5265 66.9765 81.1241 67.5879 80.7178 68.1247C80.3114 68.6615 79.8673 69.1171 79.3856 69.4914C78.9038 69.8658 78.3676 70.1599 77.7771 70.3737C77.2032 70.5865 76.5412 70.7125 75.791 70.7516Z" fill="#151D18"/>
<path d="M90.123 54.7861C89.4229 54.8226 88.9241 54.7155 88.6267 54.4649C88.346 54.2135 88.1956 53.897 88.1755 53.5155C88.1711 53.4326 88.1738 53.3243 88.1835 53.1908C88.1932 53.0572 88.2086 52.8734 88.2297 52.6395C88.2877 52.1541 88.4681 51.7705 88.7708 51.4886C89.0894 51.1893 89.5988 51.0213 90.2989 50.9848C90.9991 50.9483 91.4896 51.0558 91.7703 51.3073C92.0676 51.5579 92.2264 51.8739 92.2465 52.2554C92.2508 52.3383 92.2482 52.4466 92.2385 52.5801C92.2288 52.7137 92.2134 52.8975 92.1923 53.1314C92.1343 53.6168 91.946 54.0091 91.6275 54.3085C91.3247 54.5904 90.8232 54.7496 90.123 54.7861ZM89.6722 70.0278C88.7719 70.0748 88.0762 69.8782 87.585 69.4381C87.0928 68.9815 86.8258 68.3551 86.7839 67.5589C86.7716 67.3267 86.7757 67.0853 86.7959 66.8348C86.8161 66.5843 86.8574 66.2578 86.9198 65.8554L87.8109 59.4472L83.6599 59.6636L83.954 57.1535L91.2808 56.7714L89.8083 67.3763L90.2913 67.5008L94.0194 63.5392L95.8524 65.0154L94.1989 66.9477C93.3178 67.9916 92.5306 68.7561 91.8373 69.2413C91.1607 69.7257 90.439 69.9879 89.6722 70.0278Z" fill="#151D18"/>
<path d="M102.478 69.3601C101.628 69.4044 100.854 69.32 100.158 69.1069C99.477 68.8763 98.8905 68.5326 98.3984 68.076C97.923 67.6184 97.5423 67.0561 97.2564 66.3891C96.9872 65.7213 96.8308 64.9727 96.7871 64.1434C96.7224 62.916 96.8394 61.8038 97.1379 60.807C97.4365 59.8101 97.8846 58.9552 98.4822 58.2421C99.079 57.5124 99.8012 56.9425 100.649 56.5324C101.513 56.1215 102.471 55.8886 103.521 55.8338C104.371 55.7895 105.136 55.8827 105.817 56.1133C106.514 56.3264 107.1 56.6618 107.575 57.1193C108.068 57.576 108.448 58.1382 108.717 58.8061C109.003 59.4731 109.168 60.2213 109.212 61.0506C109.276 62.278 109.159 63.3901 108.861 64.387C108.562 65.3838 108.115 66.2471 107.518 66.9767C106.92 67.6898 106.189 68.2518 105.325 68.6628C104.477 69.0729 103.528 69.3054 102.478 69.3601ZM102.576 66.9351C103.51 66.8864 104.237 66.574 104.758 65.998C105.295 65.4045 105.629 64.5888 105.758 63.5509L105.965 61.7688C105.988 61.568 106.002 61.3676 106.008 61.1677C106.031 60.967 106.039 60.7919 106.031 60.6427C105.986 59.7967 105.728 59.1782 105.256 58.787C104.801 58.395 104.19 58.2189 103.423 58.2589C102.489 58.3076 101.754 58.6287 101.217 59.2222C100.696 59.7982 100.37 60.6052 100.241 61.6431L100.034 63.4252C100.011 63.626 99.9883 63.8267 99.9655 64.0275C99.9593 64.2274 99.9601 64.402 99.968 64.5513C100.013 65.3972 100.262 66.0162 100.718 66.4082C101.19 66.7994 101.809 66.975 102.576 66.9351Z" fill="#151D18"/>
<path d="M110.142 68.6611L111.616 55.7111L114.767 55.5468L114.427 58.6082L114.552 58.6017C114.965 57.5656 115.481 56.732 116.1 56.101C116.735 55.4525 117.569 55.1013 118.602 55.0475C119.202 55.0162 119.724 55.0887 120.168 55.2652C120.628 55.4242 121.008 55.6621 121.309 55.9791C121.61 56.296 121.839 56.6832 121.997 57.1407C122.171 57.5807 122.271 58.0578 122.298 58.572C122.331 59.1857 122.289 59.9862 122.174 60.9735L121.37 68.0757L118.219 68.24L119.058 60.8366C119.079 60.6026 119.099 60.3521 119.118 60.085C119.154 59.817 119.165 59.5503 119.151 59.2849C119.127 58.8205 118.98 58.4124 118.711 58.0605C118.441 57.7086 117.998 57.5488 117.382 57.5809C116.898 57.6062 116.488 57.744 116.15 57.9945C115.811 58.2283 115.493 58.5443 115.197 58.9423C115.025 59.1841 114.811 59.5528 114.553 60.0486C114.294 60.5278 114.13 61.0686 114.062 61.6709L113.293 68.4968L110.142 68.6611Z" fill="#151D18"/>
<path d="M127.44 68.0585C126.173 68.1246 125.225 67.7416 124.596 66.9095C123.966 66.0609 123.607 64.8072 123.52 63.1486C123.462 62.0373 123.531 60.9693 123.727 59.9444C123.941 58.9188 124.269 58.0118 124.712 57.2236C125.172 56.4346 125.749 55.7975 126.442 55.3123C127.152 54.8262 127.982 54.5584 128.932 54.5088C129.883 54.4593 130.637 54.6528 131.195 55.0894C131.752 55.5094 132.169 56.1363 132.447 56.97L132.572 56.9635L132.849 54.604L136 54.4397L134.8 64.9804L136.25 64.9048L135.976 67.3141L134.226 67.4053C133.325 67.4523 132.647 67.2631 132.19 66.8379C131.749 66.4118 131.574 65.7889 131.665 64.9692L131.715 64.4926L131.615 64.4978C131.391 65.0084 131.148 65.4785 130.887 65.9079C130.641 66.3199 130.351 66.6843 130.017 67.0011C129.698 67.3004 129.327 67.5444 128.902 67.7328C128.477 67.9213 127.99 68.0299 127.44 68.0585ZM128.684 65.4989C129.551 65.4537 130.312 64.9899 130.968 64.1074C131.186 63.8133 131.409 63.4358 131.635 62.9749C131.877 62.4966 132.026 61.9899 132.082 61.4548L132.334 59.0965C132.415 58.427 132.27 57.894 131.898 57.4976C131.525 57.0846 130.914 56.9003 130.064 56.9446C129.064 56.9968 128.321 57.3349 127.835 57.9589C127.367 58.5821 127.076 59.404 126.962 60.4244L126.774 62.0808C126.748 62.2318 126.732 62.399 126.725 62.5823C126.718 62.7656 126.72 62.9734 126.733 63.2056C126.77 63.9188 126.942 64.492 127.249 64.925C127.556 65.3415 128.034 65.5328 128.684 65.4989Z" fill="#151D18"/>
<path d="M142.746 67.2604C141.813 67.3091 141.116 67.1042 140.658 66.6458C140.199 66.1874 139.948 65.5602 139.907 64.764C139.894 64.5318 139.89 64.2991 139.895 64.0661C139.916 63.8321 139.958 63.5222 140.021 63.1364L141.642 51.0519L137.616 51.2619L137.91 48.7518L145.136 48.3749L142.932 64.6062L143.39 64.732L147.167 60.743L149 62.2192L147.25 64.2314C146.353 65.2761 145.565 66.0324 144.888 66.5001C144.21 66.9679 143.496 67.2213 142.746 67.2604Z" fill="#151D18"/>
<path d="M12.7396 85.5154C13.8399 85.458 14.8282 85.6559 15.7046 86.1092C16.5968 86.545 17.2995 87.1903 17.8126 88.045C18.3423 88.8989 18.6369 89.8898 18.6963 91.0176C18.7689 92.3943 18.5185 93.6714 17.9453 94.8489C17.3712 96.0098 16.5599 96.9502 15.5112 97.6702C14.4617 98.3736 13.2784 98.7596 11.9614 98.8283C10.6444 98.8969 9.51047 98.6317 8.5595 98.0327C7.62433 97.4162 6.97657 96.5435 6.61621 95.4147L5.35875 103.913L3.68334 104L6.31827 85.95L7.99368 85.8626L7.60091 88.4028C8.19072 87.5405 8.93227 86.8615 9.82557 86.3659C10.718 85.8536 11.6893 85.5701 12.7396 85.5154ZM12.2892 86.9609C11.2723 87.0139 10.3527 87.328 9.53042 87.9031C8.72397 88.4607 8.09427 89.2004 7.64132 90.1221C7.20418 91.0264 7.01356 92.0093 7.06948 93.0709C7.14025 94.4144 7.60591 95.4795 8.46646 96.2662C9.32701 97.0529 10.4158 97.412 11.7328 97.3433C12.7497 97.2903 13.6697 96.9845 14.4928 96.426C15.3151 95.8509 15.9527 95.1025 16.4056 94.1807C16.8586 93.259 17.0571 92.2674 17.0012 91.2058C16.9304 89.8623 16.4568 88.8059 15.5805 88.0367C14.7199 87.2499 13.6228 86.8913 12.2892 86.9609Z" fill="#151D18"/>
<path d="M23.7173 85.0427L21.8033 98.2153L20.1279 98.3026L22.0418 85.1301L23.7173 85.0427ZM23.5815 80.0852C23.8649 80.0704 24.0952 80.1582 24.2724 80.3485C24.4654 80.5214 24.5693 80.7489 24.5841 81.0308C24.6042 81.4123 24.48 81.7514 24.2115 82.0482C23.942 82.3283 23.6156 82.4784 23.2322 82.4984C22.9655 82.5123 22.7356 82.4328 22.5426 82.2599C22.3487 82.0705 22.2444 81.8347 22.2295 81.5528C22.2094 81.1713 22.3341 80.8405 22.6035 80.5603C22.8721 80.2635 23.1981 80.1052 23.5815 80.0852Z" fill="#151D18"/>
<path d="M31.1064 97.83C30.0061 97.8874 29.0098 97.6981 28.1176 97.2623C27.2412 96.8091 26.5381 96.1555 26.0084 95.3016C25.4953 94.4469 25.209 93.4556 25.1496 92.3277C25.0771 90.951 25.3279 89.6823 25.902 88.5213C26.4752 87.3438 27.2865 86.4034 28.3361 85.7C29.3847 84.9801 30.5675 84.5858 31.8845 84.5171C33.2015 84.4484 34.3272 84.7141 35.2614 85.314C36.2124 85.913 36.8681 86.777 37.2284 87.9058L37.7662 84.3102L39.4416 84.2228L37.5277 97.3954L35.8523 97.4827L36.245 94.9425C35.6552 95.8049 34.9141 96.4921 34.0217 97.0044C33.1284 97.5 32.1566 97.7752 31.1064 97.83ZM31.5568 96.3845C32.557 96.3323 33.4687 96.027 34.2918 95.4685C35.1141 94.8934 35.7434 94.1454 36.1796 93.2245C36.6326 92.3028 36.8311 91.3111 36.7752 90.2496C36.7053 88.9227 36.2401 87.8659 35.3795 87.0791C34.5189 86.2924 33.4302 85.9334 32.1132 86.0021C31.0963 86.0551 30.1767 86.3691 29.3544 86.9442C28.5313 87.5027 27.8933 88.2429 27.4403 89.1646C26.9874 90.0864 26.7889 91.078 26.8448 92.1395C26.9147 93.4664 27.3799 94.5233 28.2405 95.31C29.1177 96.0958 30.2231 96.454 31.5568 96.3845Z" fill="#151D18"/>
<path d="M46.3577 97.0347C44.9074 97.1104 43.7554 96.8212 42.9019 96.1671C42.0641 95.4956 41.612 94.5296 41.5456 93.269C41.522 92.8212 41.548 92.3625 41.6236 91.8928L42.7651 84.0495L44.4655 83.9609L43.3398 91.6287C43.2906 91.9639 43.2756 92.314 43.2948 92.6789C43.3447 93.6243 43.6669 94.3476 44.2617 94.8488C44.8723 95.3326 45.711 95.5466 46.7779 95.491C48.1274 95.404 49.2721 94.9202 50.212 94.0396C51.151 93.1424 51.7325 91.9645 51.9566 90.5058L52.9676 83.5176L54.643 83.4302L52.7541 96.6014L51.0537 96.6901L51.4596 93.9246C50.9242 94.8673 50.2191 95.6026 49.3442 96.1306C48.486 96.6577 47.4905 96.959 46.3577 97.0347Z" fill="#151D18"/>
<path d="M60.0787 83.1468L58.1648 96.3193L56.4894 96.4067L58.4033 83.2341L60.0787 83.1468ZM59.9429 78.1892C60.2263 78.1744 60.4566 78.2622 60.6338 78.4526C60.8268 78.6255 60.9307 78.8529 60.9456 79.1348C60.9657 79.5163 60.8415 79.8555 60.5729 80.1522C60.3035 80.4324 59.9771 80.5824 59.5936 80.6024C59.3269 80.6163 59.097 80.5368 58.904 80.364C58.7102 80.1745 58.6058 79.9388 58.591 79.6568C58.5709 79.2753 58.6955 78.9445 58.965 78.6643C59.2335 78.3676 59.5595 78.2092 59.9429 78.1892Z" fill="#151D18"/>
<path d="M63.1984 90.0943L63.2023 90.1689C63.2748 91.5456 63.7414 92.6273 64.6019 93.414C65.4791 94.1999 66.6096 94.5567 67.9932 94.4846C68.7934 94.4428 69.545 94.2706 70.2478 93.9678C70.9507 93.6651 71.5641 93.2506 72.088 92.7243L72.9459 93.7773C72.3272 94.4083 71.5927 94.904 70.7424 95.2643C69.8921 95.6246 68.9752 95.8305 67.9916 95.8817C66.7747 95.9452 65.6863 95.7525 64.7265 95.3036C63.7834 94.8538 63.0299 94.1945 62.4659 93.3258C61.9186 92.4562 61.6139 91.4326 61.5519 90.255C61.4803 88.8949 61.7324 87.651 62.3082 86.5232C62.8831 85.3789 63.7041 84.4629 64.7712 83.7753C65.855 83.0867 67.0637 82.7077 68.3973 82.6382C70.1311 82.5478 71.5252 82.9907 72.5796 83.9669C73.6507 84.9422 74.2316 86.2924 74.3225 88.0173C74.3443 88.432 74.3289 88.9318 74.2761 89.5166L63.1984 90.0943ZM68.472 84.0563C67.1217 84.1267 65.9678 84.5944 65.0104 85.4593C64.0696 86.3233 63.4925 87.4261 63.279 88.7678L72.8313 88.2697C72.7755 86.8922 72.3602 85.8328 71.5857 85.0915C70.8269 84.3327 69.789 83.9876 68.472 84.0563Z" fill="#151D18"/>
<path d="M83.9938 81.8C85.4441 81.7244 86.5882 82.0223 87.4259 82.6938C88.2795 83.3478 88.7395 84.3051 88.8059 85.5657C88.8286 85.9969 88.8026 86.4557 88.7279 86.9419L87.5864 94.7852L85.886 94.8738L87.0117 87.206C87.0609 86.8708 87.0759 86.5208 87.0567 86.1559C87.0069 85.2104 86.6767 84.4958 86.0661 84.0121C85.4714 83.5109 84.6405 83.2881 83.5736 83.3437C82.2241 83.4307 81.0799 83.9228 80.1409 84.82C79.201 85.7006 78.619 86.8702 78.395 88.3289L77.3839 95.3172L75.7085 95.4045L77.5974 82.2333L79.2979 82.1446L78.8919 84.9101C79.4273 83.9674 80.1241 83.2325 80.9823 82.7054C81.8572 82.1775 82.861 81.8757 83.9938 81.8Z" fill="#151D18"/>
<path d="M95.1068 94.5677C93.9899 94.6259 92.9116 94.4659 91.872 94.0877C90.8315 93.6929 90.0169 93.1449 89.4283 92.4438L90.2196 91.2799C90.7696 91.8832 91.4801 92.3618 92.3513 92.7155C93.2216 93.0527 94.1152 93.1973 95.0321 93.1495C95.9157 93.1035 96.6299 92.8583 97.1749 92.4141C97.7356 91.9524 97.9981 91.3816 97.9623 90.7015C97.9326 90.1376 97.6756 89.7019 97.1914 89.3945C96.7062 89.0706 95.9868 88.7422 95.0332 88.4094C94.2497 88.1342 93.6093 87.8765 93.1119 87.6364C92.6311 87.3953 92.2126 87.0679 91.8565 86.654C91.5004 86.2402 91.3053 85.7098 91.2712 85.0629C91.2127 83.9516 91.5827 83.0425 92.3813 82.3356C93.1957 81.6112 94.2614 81.2147 95.5784 81.146C96.4953 81.0982 97.37 81.2023 98.2026 81.4583C99.051 81.6968 99.7712 82.0417 100.363 82.4932L99.5761 83.7318C99.0208 83.3449 98.3865 83.0453 97.6732 82.8331C96.9766 82.6199 96.2865 82.5311 95.6031 82.5668C94.7862 82.6094 94.1211 82.8353 93.6077 83.2446C93.111 83.6531 92.8792 84.1724 92.9124 84.8027C92.9413 85.3501 93.1895 85.7779 93.6571 86.0861C94.1238 86.3778 94.8423 86.6896 95.8126 87.0215C96.6127 87.2958 97.2615 87.5531 97.759 87.7932C98.2731 88.0325 98.7086 88.3674 99.0656 88.7979C99.4393 89.2274 99.6436 89.774 99.6785 90.4374C99.7397 91.5985 99.339 92.5591 98.4763 93.3192C97.6136 94.0794 96.4905 94.4955 95.1068 94.5677Z" fill="#151D18"/>
<path d="M102.661 88.0366L102.665 88.1112C102.738 89.4879 103.204 90.5696 104.065 91.3563C104.942 92.1422 106.072 92.499 107.456 92.4269C108.256 92.3852 109.008 92.2129 109.711 91.9101C110.413 91.6074 111.027 91.1929 111.551 90.6666L112.409 91.7196C111.79 92.3506 111.055 92.8463 110.205 93.2066C109.355 93.5669 108.438 93.7728 107.454 93.8241C106.237 93.8875 105.149 93.6948 104.189 93.2459C103.246 92.7961 102.493 92.1368 101.929 91.2681C101.381 90.3985 101.077 89.3749 101.015 88.1973C100.943 86.8372 101.195 85.5933 101.771 84.4655C102.346 83.3212 103.167 82.4052 104.234 81.7176C105.318 81.0291 106.526 80.65 107.86 80.5805C109.594 80.4901 110.988 80.933 112.042 81.9092C113.113 82.8845 113.694 84.2347 113.785 85.9597C113.807 86.3743 113.792 86.8741 113.739 87.459L102.661 88.0366ZM107.935 81.9986C106.584 82.069 105.431 82.5367 104.473 83.4016C103.532 84.2656 102.955 85.3684 102.742 86.7101L112.294 86.212C112.238 84.8345 111.823 83.7751 111.048 83.0338C110.29 82.275 109.252 81.9299 107.935 81.9986Z" fill="#151D18"/>
<path d="M23.2293 15.9987C23.0521 15.8084 22.8218 15.7206 22.5384 15.7354C22.1549 15.7554 21.829 15.9137 21.5604 16.2105C21.291 16.4906 21.1663 16.8215 21.1864 17.2029C21.2013 17.4849 21.3056 17.7206 21.4995 17.9101C21.6925 18.083 21.9223 18.1625 22.1891 18.1486C22.5725 18.1286 22.8989 17.9785 23.1684 17.6984C23.4369 17.4016 23.5611 17.0625 23.541 16.681C23.5262 16.399 23.4223 16.1716 23.2293 15.9987Z" fill="#151D18"/>
<path d="M7.6248 16.7644C7.44761 16.5741 7.21731 16.4863 6.9339 16.5011C6.55048 16.5211 6.22449 16.6794 5.95594 16.9762C5.68652 17.2563 5.56186 17.5872 5.58195 17.9687C5.5968 18.2506 5.70116 18.4863 5.89502 18.6758C6.08801 18.8487 6.31786 18.9282 6.58459 18.9143C6.96802 18.8943 7.29446 18.7442 7.56388 18.4641C7.83243 18.1673 7.95666 17.8282 7.93656 17.4467C7.92171 17.1647 7.81779 16.9373 7.6248 16.7644Z" fill="#151D18"/>
<path d="M117.393 91.2631C117.216 91.0727 116.986 90.9849 116.702 90.9997C116.319 91.0197 115.993 91.1781 115.724 91.4748C115.455 91.755 115.33 92.0858 115.35 92.4673C115.365 92.7493 115.47 92.985 115.663 93.1745C115.856 93.3474 116.086 93.4268 116.353 93.4129C116.736 93.393 117.063 93.2429 117.332 92.9627C117.601 92.666 117.725 92.3269 117.705 91.9454C117.69 91.6634 117.586 91.436 117.393 91.2631Z" fill="#151D18"/>
</svg>
